<svg width="88" height="88" viewBox="0 0 88 88" fill="none" xmlns="http://www.w3.org/2000/svg">
<g id="illu/004">
<g id="Group 35">
<path id="Vector" d="M66.5473 54.8098C65.4713 53.7292 64.1165 52.9685 62.6337 52.6127C61.3505 52.3047 60.0151 52.3103 58.7397 52.625C58.3738 52.7153 57.9813 52.6263 57.7148 52.3598L35.6544 30.2995C35.3837 30.0287 35.2969 29.6279 35.3931 29.2573C36.8619 23.5984 31.5606 17.92 25.7371 19.1762C25.5288 19.2198 25.344 19.339 25.2183 19.5108C25.0927 19.6825 25.0351 19.8948 25.0566 20.1065C25.0825 20.3019 25.1665 20.4849 25.2978 20.6319L28.33 23.6642C28.5853 23.9194 28.6831 24.2923 28.5862 24.64L27.8802 27.1706C27.7851 27.5115 27.5169 27.7767 27.1749 27.868L24.6061 28.5539C24.2612 28.6459 23.8934 28.5472 23.641 28.2948L20.6035 25.2573C20.4166 25.1069 20.1795 25.033 19.9403 25.0506C19.758 25.0686 19.5862 25.1444 19.4499 25.2667C19.3136 25.3891 19.2199 25.5517 19.1823 25.731C17.8937 31.5506 23.6665 36.8967 29.2746 35.3951C29.6485 35.295 30.0547 35.3804 30.3283 35.6542L52.3574 57.6999C52.6283 57.971 52.7147 58.3723 52.618 58.7431C51.1424 64.4019 56.4516 70.08 62.275 68.8238C62.4833 68.7802 62.6681 68.661 62.7938 68.4892C62.9194 68.3175 62.977 68.1053 62.9555 67.8935C62.9296 67.6982 62.8456 67.5151 62.7143 67.3681L59.6821 64.3358C59.4268 64.0806 59.329 63.7077 59.4259 63.36L60.1319 60.8294C60.227 60.4885 60.4952 60.2233 60.8372 60.132L63.406 59.4461C63.7509 59.3541 64.1187 59.4528 64.3711 59.7052L67.4086 62.7427C67.5814 62.8892 67.7947 62.9793 68.0202 63.0011C68.2229 63.0048 68.4204 62.9369 68.578 62.8092C68.7355 62.6816 68.843 62.5025 68.8815 62.3034C69.1444 60.9588 69.0687 59.5698 68.6613 58.2617C68.2538 56.9535 67.5273 55.7673 66.5473 54.8098Z" stroke="#3EA433" stroke-width="1.5"/>
<path id="Vector_2" d="M46.1422 37.6692L50.3456 41.8725C50.4256 41.9533 50.5209 42.0173 50.6259 42.0611C50.7308 42.1048 50.8434 42.1273 50.9571 42.1273C51.0708 42.1273 51.1834 42.1048 51.2884 42.0611C51.3933 42.0173 51.4886 41.9533 51.5687 41.8725L57.4444 35.9808C57.7171 35.7073 58.122 35.621 58.4951 35.7206C64.2359 37.2531 70.076 31.8116 68.7696 25.9119C68.732 25.7327 68.6383 25.57 68.502 25.4477C68.3657 25.3253 68.1939 25.2496 68.0116 25.2315C67.8851 25.223 67.7582 25.2399 67.6383 25.2813C67.5185 25.3228 67.4082 25.3878 67.3139 25.4727L64.277 28.5096C64.0243 28.7623 63.6559 28.8609 63.3107 28.7683L60.6633 28.0579C60.3222 27.9664 60.0547 27.7018 59.9595 27.3618L59.2287 24.7525C59.1312 24.4046 59.229 24.0312 59.4845 23.7757L62.5163 20.7439C62.6013 20.6501 62.6659 20.5396 62.7059 20.4195C62.7459 20.2994 62.7606 20.1723 62.7488 20.0462C62.743 19.8583 62.6759 19.6775 62.5577 19.5313C62.4395 19.3851 62.2767 19.2816 62.0942 19.2366C56.1521 17.9549 50.797 23.7736 52.2987 29.4981C52.396 29.8689 52.3096 30.2704 52.0387 30.5416L46.1422 36.4461C46.0615 36.5262 45.9974 36.6214 45.9537 36.7264C45.91 36.8314 45.8875 36.9439 45.8875 37.0577C45.8875 37.1714 45.91 37.2839 45.9537 37.3889C45.9974 37.4939 46.0615 37.5891 46.1422 37.6692Z" stroke="#333333" stroke-width="1.5"/>
<path id="Vector_3" d="M37.6753 46.1361C37.5953 46.0554 37.5 45.9913 37.395 45.9476C37.2901 45.9039 37.1775 45.8813 37.0638 45.8813C36.9501 45.8813 36.8375 45.9039 36.7325 45.9476C36.6276 45.9913 36.5323 46.0554 36.4522 46.1361L30.079 52.5094C29.8187 52.7697 29.4347 52.8606 29.076 52.7779C21.3242 50.99 15.6747 60.5897 21.4994 66.5068C27.3236 72.4234 37.043 66.6873 35.2389 58.9322C35.1552 58.5723 35.246 58.1868 35.5074 57.9257L41.8787 51.5626C41.9594 51.4825 42.0235 51.3872 42.0672 51.2823C42.1109 51.1773 42.1334 51.0647 42.1334 50.951C42.1334 50.8373 42.1109 50.7247 42.0672 50.6198C42.0235 50.5148 41.9594 50.4195 41.8787 50.3395L37.6753 46.1361ZM31.646 60.0123L30.6985 63.5524C30.6595 63.6992 30.5824 63.8331 30.475 63.9405C30.3676 64.0479 30.2337 64.125 30.0869 64.1639L26.5468 65.1114C26.3965 65.156 26.2368 65.1588 26.085 65.1193C25.9332 65.0798 25.7951 64.9997 25.6855 64.8875L23.1015 62.3034C22.9893 62.1939 22.9091 62.0557 22.8697 61.9039C22.8302 61.7522 22.8329 61.5925 22.8775 61.4421L23.825 57.902C23.864 57.7552 23.9411 57.6213 24.0485 57.5139C24.1559 57.4065 24.2898 57.3294 24.4366 57.2905L27.9767 56.343C28.127 56.2984 28.2867 56.2956 28.4385 56.3351C28.5903 56.3746 28.7284 56.4547 28.838 56.5669L31.422 59.151C31.5342 59.2605 31.6144 59.3987 31.6539 59.5505C31.6933 59.7022 31.6906 59.8619 31.646 60.0123Z" stroke="#333333" stroke-width="1.5"/>
</g>
</g>
</svg>
