<svg width="88" height="88" viewBox="0 0 88 88" fill="none" xmlns="http://www.w3.org/2000/svg">
<path d="M62 40V24L52 14H16V72H47" stroke="#929292" stroke-width="1.5"/>
<path d="M53 24H61.5172C61.6953 24 61.7846 23.7846 61.6586 23.6586L52.3414 14.3414C52.2154 14.2154 52 14.3047 52 14.4828V23C52 23.5523 52.4477 24 53 24Z" stroke="#929292" stroke-width="1.5"/>
<path d="M24 26H44" stroke="#333333" stroke-width="1.5"/>
<path d="M24 34H54" stroke="#333333" stroke-width="1.5"/>
<path d="M24 42H48" stroke="#333333" stroke-width="1.5"/>
<path d="M24 50H40" stroke="#333333" stroke-width="1.5"/>
<path d="M24 58H36" stroke="#333333" stroke-width="1.5"/>
<path d="M57.499 42C57.4983 42.0012 53.6004 45.377 43.0209 45.9401C43.0209 45.9401 41.8272 68.9333 57.499 74C73.1716 68.9333 71.9792 45.9401 71.9792 45.9401C61.399 45.377 57.4997 42.0012 57.499 42Z" stroke="#3EA433" stroke-width="1.5"/>
<path d="M57.6079 46.5C57.6074 46.5008 54.7848 48.9272 47.1237 49.3319C47.1237 49.3319 46.2593 65.8583 57.6079 69.5C68.957 65.8583 68.0936 49.3319 68.0936 49.3319C60.432 48.9272 57.6084 46.5008 57.6079 46.5Z" stroke="#333333" stroke-width="1.5"/>
<path d="M54.1304 57.3043L57.6086 60.7826L63.1738 53.826" stroke="#3EA433" stroke-width="1.5"/>
</svg>
