<svg width="531" height="501" viewBox="0 0 531 501" fill="none" xmlns="http://www.w3.org/2000/svg">
<g filter="url(#filter0_d_229_1963)">
<rect x="20" y="12" width="490.222" height="551.5" rx="6" fill="url(#paint0_linear_229_1963)"/>
</g>
<g filter="url(#filter1_d_229_1963)">
<rect x="47.3564" y="39.3561" width="435.51" height="95.1994" rx="4" fill="url(#paint1_linear_229_1963)"/>
<rect x="46.8564" y="38.8561" width="436.51" height="96.1994" rx="4.5" stroke="#2E2E2E"/>
</g>
<g filter="url(#filter2_i_229_1963)">
<rect x="56.1101" y="48.1101" width="418.002" height="75.503" rx="2" fill="#332F2E"/>
</g>
<rect x="57.1101" y="49.1101" width="416.002" height="73.503" rx="1" stroke="url(#paint2_linear_229_1963)" stroke-width="2"/>
<g filter="url(#filter3_di_229_1963)">
<rect x="47.3564" y="159.723" width="95.1994" height="60.1835" rx="4" fill="url(#paint3_radial_229_1963)"/>
<rect x="46.8564" y="159.223" width="96.1994" height="61.1835" rx="4.5" stroke="#D7D7D7"/>
</g>
<path d="M97.3406 194.948H95.5806V189.108C95.5806 188.015 95.4006 187.208 95.0406 186.688C94.6939 186.168 94.1739 185.908 93.4806 185.908C92.7739 185.908 92.1339 186.168 91.5606 186.688C90.9872 187.195 90.5806 187.855 90.3406 188.668V194.948H88.5806V189.108C88.5806 188.002 88.4072 187.195 88.0606 186.688C87.7139 186.168 87.1939 185.908 86.5006 185.908C85.8072 185.908 85.1672 186.162 84.5806 186.668C84.0072 187.162 83.6006 187.822 83.3606 188.648V194.948H81.6006V184.508H83.2006V186.748C83.6272 185.975 84.1806 185.382 84.8606 184.968C85.5406 184.542 86.3072 184.328 87.1606 184.328C88.0272 184.328 88.7206 184.568 89.2406 185.048C89.7606 185.515 90.0806 186.122 90.2006 186.868C90.6672 186.042 91.2339 185.415 91.9006 184.988C92.5672 184.548 93.3272 184.328 94.1806 184.328C94.7806 184.328 95.2806 184.442 95.6806 184.668C96.0939 184.882 96.4206 185.188 96.6606 185.588C96.9006 185.975 97.0739 186.435 97.1806 186.968C97.2872 187.502 97.3406 188.082 97.3406 188.708V194.948ZM104.697 195.148C103.91 195.148 103.19 195.008 102.537 194.728C101.897 194.435 101.337 194.035 100.857 193.528C100.39 193.022 100.024 192.442 99.7571 191.788C99.5038 191.135 99.3771 190.442 99.3771 189.708C99.3771 188.722 99.5971 187.822 100.037 187.008C100.477 186.195 101.097 185.548 101.897 185.068C102.697 184.575 103.624 184.328 104.677 184.328C105.704 184.328 106.597 184.562 107.357 185.028C108.13 185.482 108.704 186.095 109.077 186.868L107.357 187.408C107.09 186.915 106.717 186.535 106.237 186.268C105.757 185.988 105.224 185.848 104.637 185.848C103.997 185.848 103.41 186.015 102.877 186.348C102.357 186.682 101.944 187.142 101.637 187.728C101.33 188.302 101.177 188.962 101.177 189.708C101.177 190.442 101.33 191.108 101.637 191.708C101.957 192.295 102.377 192.762 102.897 193.108C103.43 193.455 104.017 193.628 104.657 193.628C105.07 193.628 105.464 193.555 105.837 193.408C106.224 193.262 106.557 193.068 106.837 192.828C107.13 192.575 107.33 192.302 107.437 192.008L109.157 192.528C108.944 193.035 108.617 193.488 108.177 193.888C107.75 194.275 107.237 194.582 106.637 194.808C106.05 195.035 105.404 195.148 104.697 195.148Z" fill="#B1ACAC"/>
<g filter="url(#filter4_di_229_1963)">
<rect x="161.157" y="159.723" width="95.1994" height="60.1835" rx="4" fill="url(#paint4_radial_229_1963)"/>
<rect x="160.657" y="159.223" width="96.1994" height="61.1835" rx="4.5" stroke="#D7D7D7"/>
</g>
<path d="M212.519 194.948H210.759V189.108C210.759 188.015 210.579 187.208 210.219 186.688C209.872 186.168 209.352 185.908 208.659 185.908C207.952 185.908 207.312 186.168 206.739 186.688C206.165 187.195 205.759 187.855 205.519 188.668V194.948H203.759V189.108C203.759 188.002 203.585 187.195 203.239 186.688C202.892 186.168 202.372 185.908 201.679 185.908C200.985 185.908 200.345 186.162 199.759 186.668C199.185 187.162 198.779 187.822 198.539 188.648V194.948H196.779V184.508H198.379V186.748C198.805 185.975 199.359 185.382 200.039 184.968C200.719 184.542 201.485 184.328 202.339 184.328C203.205 184.328 203.899 184.568 204.419 185.048C204.939 185.515 205.259 186.122 205.379 186.868C205.845 186.042 206.412 185.415 207.079 184.988C207.745 184.548 208.505 184.328 209.359 184.328C209.959 184.328 210.459 184.442 210.859 184.668C211.272 184.882 211.599 185.188 211.839 185.588C212.079 185.975 212.252 186.435 212.359 186.968C212.465 187.502 212.519 188.082 212.519 188.708V194.948ZM221.155 187.128V188.568H218.795V191.128H217.195V188.568H214.835V187.128H217.195V184.568H218.795V187.128H221.155Z" fill="#B1ACAC"/>
<g filter="url(#filter5_di_229_1963)">
<rect x="273.865" y="159.723" width="95.1994" height="60.1835" rx="4" fill="url(#paint5_radial_229_1963)"/>
<rect x="273.365" y="159.223" width="96.1994" height="61.1835" rx="4.5" stroke="#D7D7D7"/>
</g>
<path d="M325.158 194.948H323.398V189.108C323.398 188.015 323.218 187.208 322.858 186.688C322.512 186.168 321.992 185.908 321.298 185.908C320.592 185.908 319.952 186.168 319.378 186.688C318.805 187.195 318.398 187.855 318.158 188.668V194.948H316.398V189.108C316.398 188.002 316.225 187.195 315.878 186.688C315.532 186.168 315.012 185.908 314.318 185.908C313.625 185.908 312.985 186.162 312.398 186.668C311.825 187.162 311.418 187.822 311.178 188.648V194.948H309.418V184.508H311.018V186.748C311.445 185.975 311.998 185.382 312.678 184.968C313.358 184.542 314.125 184.328 314.978 184.328C315.845 184.328 316.538 184.568 317.058 185.048C317.578 185.515 317.898 186.122 318.018 186.868C318.485 186.042 319.052 185.415 319.718 184.988C320.385 184.548 321.145 184.328 321.998 184.328C322.598 184.328 323.098 184.442 323.498 184.668C323.912 184.882 324.238 185.188 324.478 185.588C324.718 185.975 324.892 186.435 324.998 186.968C325.105 187.502 325.158 188.082 325.158 188.708V194.948ZM327.755 190.288V188.688H333.655V190.288H327.755Z" fill="#B1ACAC"/>
<g filter="url(#filter6_di_229_1963)">
<rect x="387.667" y="159.723" width="95.1994" height="60.1835" rx="4" fill="url(#paint6_radial_229_1963)"/>
<rect x="387.167" y="159.223" width="96.1994" height="61.1835" rx="4.5" stroke="#D7D7D7"/>
</g>
<path d="M439.555 194.948H437.795V189.108C437.795 188.015 437.615 187.208 437.255 186.688C436.908 186.168 436.388 185.908 435.695 185.908C434.988 185.908 434.348 186.168 433.775 186.688C433.202 187.195 432.795 187.855 432.555 188.668V194.948H430.795V189.108C430.795 188.002 430.622 187.195 430.275 186.688C429.928 186.168 429.408 185.908 428.715 185.908C428.022 185.908 427.382 186.162 426.795 186.668C426.222 187.162 425.815 187.822 425.575 188.648V194.948H423.815V184.508H425.415V186.748C425.842 185.975 426.395 185.382 427.075 184.968C427.755 184.542 428.522 184.328 429.375 184.328C430.242 184.328 430.935 184.568 431.455 185.048C431.975 185.515 432.295 186.122 432.415 186.868C432.882 186.042 433.448 185.415 434.115 184.988C434.782 184.548 435.542 184.328 436.395 184.328C436.995 184.328 437.495 184.442 437.895 184.668C438.308 184.882 438.635 185.188 438.875 185.588C439.115 185.975 439.288 186.435 439.395 186.968C439.502 187.502 439.555 188.082 439.555 188.708V194.948ZM447.812 186.048C446.932 186.062 446.152 186.288 445.472 186.728C444.805 187.155 444.332 187.748 444.052 188.508V194.948H442.292V184.508H443.932V186.928C444.292 186.208 444.765 185.628 445.352 185.188C445.952 184.735 446.578 184.482 447.232 184.428C447.365 184.428 447.478 184.428 447.572 184.428C447.665 184.428 447.745 184.435 447.812 184.448V186.048Z" fill="#B1ACAC"/>
<g filter="url(#filter7_di_229_1963)">
<rect x="47.3564" y="236.32" width="95.1994" height="60.1835" rx="4" fill="url(#paint7_radial_229_1963)"/>
<rect x="46.8564" y="235.82" width="96.1994" height="61.1835" rx="4.5" stroke="#D7D7D7"/>
</g>
<path d="M98.5654 258.651H88.3734V256.383H102.485L92.4614 276.263H89.6894L98.5654 258.651Z" fill="#333333"/>
<g filter="url(#filter8_di_229_1963)">
<rect x="161.157" y="236.32" width="95.1994" height="60.1835" rx="4" fill="url(#paint8_radial_229_1963)"/>
<rect x="160.657" y="235.82" width="96.1994" height="61.1835" rx="4.5" stroke="#D7D7D7"/>
</g>
<path d="M215.762 270.635C215.762 271.811 215.435 272.838 214.782 273.715C214.147 274.592 213.289 275.274 212.206 275.759C211.142 276.244 209.975 276.487 208.706 276.487C207.381 276.487 206.195 276.226 205.15 275.703C204.105 275.162 203.274 274.443 202.658 273.547C202.061 272.651 201.762 271.643 201.762 270.523C201.762 269.702 201.949 268.964 202.322 268.311C202.695 267.658 203.162 267.107 203.722 266.659C204.301 266.192 204.889 265.847 205.486 265.623C204.945 265.38 204.441 265.063 203.974 264.671C203.507 264.279 203.134 263.822 202.854 263.299C202.574 262.776 202.434 262.207 202.434 261.591C202.434 260.751 202.621 260.014 202.994 259.379C203.367 258.726 203.862 258.175 204.478 257.727C205.094 257.279 205.775 256.943 206.522 256.719C207.269 256.495 208.015 256.383 208.762 256.383C209.509 256.383 210.255 256.495 211.002 256.719C211.749 256.943 212.43 257.279 213.046 257.727C213.681 258.156 214.185 258.698 214.558 259.351C214.931 259.986 215.118 260.723 215.118 261.563C215.118 262.179 214.978 262.758 214.698 263.299C214.418 263.822 214.035 264.279 213.55 264.671C213.083 265.063 212.57 265.38 212.01 265.623C212.682 265.884 213.298 266.258 213.858 266.743C214.437 267.21 214.894 267.77 215.23 268.423C215.585 269.076 215.762 269.814 215.762 270.635ZM213.27 270.467C213.27 269.87 213.139 269.338 212.878 268.871C212.617 268.386 212.262 267.984 211.814 267.667C211.366 267.331 210.871 267.079 210.33 266.911C209.807 266.743 209.275 266.659 208.734 266.659C207.987 266.659 207.269 266.818 206.578 267.135C205.906 267.452 205.355 267.9 204.926 268.479C204.497 269.039 204.282 269.711 204.282 270.495C204.282 271.074 204.413 271.596 204.674 272.063C204.935 272.53 205.281 272.931 205.71 273.267C206.158 273.603 206.643 273.855 207.166 274.023C207.707 274.191 208.249 274.275 208.79 274.275C209.537 274.275 210.246 274.116 210.918 273.799C211.609 273.482 212.169 273.034 212.598 272.455C213.046 271.876 213.27 271.214 213.27 270.467ZM204.926 261.675C204.926 262.328 205.122 262.888 205.514 263.355C205.906 263.822 206.401 264.176 206.998 264.419C207.595 264.643 208.183 264.755 208.762 264.755C209.359 264.755 209.947 264.634 210.526 264.391C211.123 264.148 211.618 263.794 212.01 263.327C212.402 262.86 212.598 262.291 212.598 261.619C212.598 260.984 212.411 260.443 212.038 259.995C211.683 259.547 211.207 259.202 210.61 258.959C210.031 258.716 209.406 258.595 208.734 258.595C208.081 258.595 207.455 258.726 206.858 258.987C206.279 259.23 205.813 259.584 205.458 260.051C205.103 260.499 204.926 261.04 204.926 261.675Z" fill="#333333"/>
<g filter="url(#filter9_di_229_1963)">
<rect x="273.865" y="236.32" width="95.1994" height="60.1835" rx="4" fill="url(#paint9_radial_229_1963)"/>
<rect x="273.365" y="235.82" width="96.1994" height="61.1835" rx="4.5" stroke="#D7D7D7"/>
</g>
<path d="M314.207 263.103C314.207 261.815 314.515 260.658 315.131 259.631C315.765 258.586 316.624 257.764 317.707 257.167C318.789 256.551 319.993 256.243 321.319 256.243C322.756 256.243 324.007 256.588 325.071 257.279C326.153 257.951 326.993 258.922 327.591 260.191C328.207 261.46 328.515 262.991 328.515 264.783C328.515 267.396 328.207 269.58 327.591 271.335C326.975 273.071 326.107 274.378 324.987 275.255C323.867 276.114 322.56 276.543 321.067 276.543C319.779 276.543 318.603 276.235 317.539 275.619C316.493 274.984 315.672 274.107 315.075 272.987L316.587 271.503C316.997 272.362 317.604 273.052 318.407 273.575C319.228 274.098 320.124 274.359 321.095 274.359C322.121 274.359 323.008 274.06 323.755 273.463C324.52 272.847 325.117 271.96 325.547 270.803C325.976 269.646 326.191 268.246 326.191 266.603C325.929 267.238 325.537 267.798 325.015 268.283C324.511 268.768 323.923 269.142 323.251 269.403C322.579 269.664 321.851 269.795 321.067 269.795C319.797 269.795 318.64 269.496 317.595 268.899C316.549 268.302 315.719 267.499 315.103 266.491C314.505 265.464 314.207 264.335 314.207 263.103ZM321.291 258.343C320.432 258.343 319.648 258.558 318.939 258.987C318.229 259.416 317.66 259.995 317.231 260.723C316.801 261.432 316.587 262.216 316.587 263.075C316.587 263.934 316.801 264.718 317.231 265.427C317.66 266.136 318.229 266.706 318.939 267.135C319.667 267.564 320.46 267.779 321.319 267.779C322.177 267.779 322.961 267.564 323.671 267.135C324.399 266.706 324.977 266.136 325.407 265.427C325.836 264.718 326.051 263.943 326.051 263.103C326.051 262.244 325.827 261.46 325.379 260.751C324.949 260.023 324.371 259.444 323.643 259.015C322.933 258.567 322.149 258.343 321.291 258.343Z" fill="#333333"/>
<g filter="url(#filter10_di_229_1963)">
<rect x="387.667" y="236.32" width="95.1994" height="60.1835" rx="4" fill="url(#paint10_radial_229_1963)"/>
<rect x="387.167" y="235.82" width="96.1994" height="61.1835" rx="4.5" stroke="#D7D7D7"/>
</g>
<mask id="mask0_229_1963" style="mask-type:alpha" maskUnits="userSpaceOnUse" x="416" y="247" width="39" height="39">
<rect x="416.117" y="247.263" width="38.2986" height="38.2986" fill="#D9D9D9"/>
</mask>
<g mask="url(#mask0_229_1963)">
<path d="M430.237 271.989L440.296 261.93" stroke="#333333" stroke-width="2"/>
<path d="M440.296 271.989L430.237 261.93" stroke="#333333" stroke-width="2"/>
</g>
<g filter="url(#filter11_di_229_1963)">
<rect x="47.3564" y="312.918" width="95.1994" height="60.1835" rx="4" fill="url(#paint11_radial_229_1963)"/>
<rect x="46.8564" y="312.418" width="96.1994" height="61.1835" rx="4.5" stroke="#D7D7D7"/>
</g>
<path d="M102.202 346.28C102.202 347.549 101.884 348.707 101.25 349.752C100.634 350.779 99.7844 351.6 98.7017 352.216C97.6377 352.832 96.4337 353.14 95.0897 353.14C93.671 353.14 92.4204 352.804 91.3377 352.132C90.255 351.441 89.4057 350.452 88.7897 349.164C88.1924 347.876 87.8937 346.345 87.8937 344.572C87.8937 341.959 88.2017 339.784 88.8177 338.048C89.4337 336.312 90.3017 335.015 91.4217 334.156C92.5417 333.279 93.8484 332.84 95.3417 332.84C96.6297 332.84 97.7964 333.157 98.8417 333.792C99.9057 334.408 100.736 335.267 101.334 336.368L99.8217 337.852C99.411 336.975 98.8044 336.284 98.0017 335.78C97.199 335.257 96.303 334.996 95.3137 334.996C94.3057 334.996 93.419 335.304 92.6537 335.92C91.8884 336.536 91.291 337.423 90.8617 338.58C90.451 339.737 90.2364 341.137 90.2177 342.78C90.4977 342.127 90.8897 341.567 91.3937 341.1C91.8977 340.615 92.4857 340.241 93.1577 339.98C93.8484 339.719 94.5764 339.588 95.3417 339.588C96.6297 339.588 97.787 339.887 98.8137 340.484C99.859 341.081 100.68 341.884 101.278 342.892C101.894 343.9 102.202 345.029 102.202 346.28ZM95.1177 351.012C95.9764 351.012 96.7604 350.797 97.4697 350.368C98.1977 349.939 98.7764 349.369 99.2057 348.66C99.635 347.932 99.8497 347.139 99.8497 346.28C99.8497 345.421 99.635 344.637 99.2057 343.928C98.7764 343.219 98.1977 342.649 97.4697 342.22C96.7604 341.791 95.9764 341.576 95.1177 341.576C94.259 341.576 93.4657 341.791 92.7377 342.22C92.0284 342.649 91.459 343.219 91.0297 343.928C90.6004 344.637 90.3857 345.421 90.3857 346.28C90.3857 347.139 90.6004 347.932 91.0297 348.66C91.459 349.369 92.0284 349.939 92.7377 350.368C93.4657 350.797 94.259 351.012 95.1177 351.012Z" fill="#333333"/>
<g filter="url(#filter12_di_229_1963)">
<rect x="161.157" y="312.918" width="95.1994" height="60.1835" rx="4" fill="url(#paint12_radial_229_1963)"/>
<rect x="160.657" y="312.418" width="96.1994" height="61.1835" rx="4.5" stroke="#D7D7D7"/>
</g>
<path d="M208.427 353.14C207.008 353.14 205.729 352.804 204.591 352.132C203.471 351.46 202.612 350.555 202.015 349.416L203.555 348.072C204.077 348.931 204.768 349.621 205.627 350.144C206.504 350.667 207.447 350.928 208.455 350.928C209.313 350.928 210.079 350.741 210.751 350.368C211.423 349.995 211.955 349.481 212.347 348.828C212.739 348.175 212.935 347.419 212.935 346.56C212.935 345.72 212.739 344.983 212.347 344.348C211.973 343.713 211.46 343.219 210.807 342.864C210.172 342.491 209.453 342.304 208.651 342.304C207.867 342.304 207.12 342.481 206.411 342.836C205.701 343.191 205.132 343.695 204.703 344.348H202.463L204.703 332.98H214.363V335.248H206.523L205.319 341.576C205.729 341.128 206.243 340.783 206.859 340.54C207.493 340.297 208.193 340.176 208.959 340.176C210.191 340.176 211.292 340.447 212.263 340.988C213.252 341.529 214.027 342.276 214.587 343.228C215.165 344.161 215.455 345.253 215.455 346.504C215.455 347.811 215.137 348.968 214.503 349.976C213.887 350.965 213.047 351.74 211.983 352.3C210.937 352.86 209.752 353.14 208.427 353.14Z" fill="#333333"/>
<g filter="url(#filter13_di_229_1963)">
<rect x="273.865" y="312.918" width="95.1994" height="60.1835" rx="4" fill="url(#paint13_radial_229_1963)"/>
<rect x="273.365" y="312.418" width="96.1994" height="61.1835" rx="4.5" stroke="#D7D7D7"/>
</g>
<path d="M323.493 352.86V347.792H314.141V345.58L324.249 332.98H325.957V345.552H328.421V347.792H325.957V352.86H323.493ZM316.717 345.552H323.745V336.76L316.717 345.552Z" fill="#333333"/>
<g filter="url(#filter14_di_229_1963)">
<rect x="387.667" y="312.918" width="95.1994" height="60.1835" rx="4" fill="url(#paint14_radial_229_1963)"/>
<rect x="387.167" y="312.418" width="96.1994" height="61.1835" rx="4.5" stroke="#D7D7D7"/>
</g>
<mask id="mask1_229_1963" style="mask-type:alpha" maskUnits="userSpaceOnUse" x="416" y="323" width="39" height="40">
<rect x="416.117" y="323.86" width="38.2986" height="38.2986" fill="#D9D9D9"/>
</mask>
<g mask="url(#mask1_229_1963)">
<circle cx="435.266" cy="337.538" r="1.64137" fill="#333333"/>
<circle cx="435.266" cy="349.575" r="1.64137" fill="#333333"/>
<path d="M428.154 343.557H442.379" stroke="#333333" stroke-width="2"/>
</g>
<g filter="url(#filter15_di_229_1963)">
<rect x="47.3564" y="389.515" width="95.1994" height="60.1835" rx="4" fill="url(#paint15_radial_229_1963)"/>
<rect x="46.8564" y="389.015" width="96.1994" height="61.1835" rx="4.5" stroke="#D7D7D7"/>
</g>
<path d="M94.6345 429.709C93.4958 429.709 92.4598 429.532 91.5265 429.177C90.6118 428.804 89.8465 428.291 89.2305 427.637C88.6332 426.965 88.2412 426.191 88.0545 425.313L89.4545 423.829C89.5105 424.371 89.7532 424.921 90.1825 425.481C90.6118 426.041 91.1998 426.508 91.9465 426.881C92.7118 427.236 93.5985 427.413 94.6065 427.413C95.4652 427.413 96.2398 427.273 96.9305 426.993C97.6212 426.695 98.1718 426.284 98.5825 425.761C98.9932 425.239 99.1985 424.632 99.1985 423.941C99.1985 423.176 98.9465 422.523 98.4425 421.981C97.9385 421.44 97.2198 421.029 96.2865 420.749C95.3718 420.469 94.2798 420.329 93.0105 420.329H92.0585V418.229H93.0105C94.7278 418.229 96.0998 417.959 97.1265 417.417C98.1532 416.857 98.6665 416.027 98.6665 414.925C98.6665 414.216 98.4705 413.609 98.0785 413.105C97.7052 412.583 97.2012 412.191 96.5665 411.929C95.9505 411.649 95.2878 411.509 94.5785 411.509C93.3838 411.509 92.3665 411.78 91.5265 412.321C90.7052 412.844 90.1265 413.46 89.7905 414.169L88.1385 412.461C88.5118 411.808 89.0345 411.248 89.7065 410.781C90.3785 410.315 91.1345 409.96 91.9745 409.717C92.8145 409.456 93.6732 409.325 94.5505 409.325C95.8385 409.325 96.9865 409.568 97.9945 410.053C99.0212 410.539 99.8238 411.192 100.402 412.013C100.981 412.835 101.27 413.768 101.27 414.813C101.27 415.56 101.121 416.232 100.822 416.829C100.524 417.408 100.085 417.893 99.5065 418.285C98.9278 418.677 98.2278 418.976 97.4065 419.181C98.2838 419.331 99.0492 419.648 99.7025 420.133C100.356 420.619 100.86 421.216 101.214 421.925C101.569 422.635 101.746 423.409 101.746 424.249C101.746 425.407 101.41 426.396 100.738 427.217C100.066 428.02 99.1892 428.636 98.1065 429.065C97.0425 429.495 95.8852 429.709 94.6345 429.709Z" fill="#333333"/>
<g filter="url(#filter16_di_229_1963)">
<rect x="161.157" y="389.515" width="95.1994" height="60.1835" rx="4" fill="url(#paint16_radial_229_1963)"/>
<rect x="160.657" y="389.015" width="96.1994" height="61.1835" rx="4.5" stroke="#D7D7D7"/>
</g>
<path d="M201.787 429.457C201.787 428.337 201.881 427.348 202.067 426.489C202.273 425.612 202.562 424.828 202.935 424.137C203.327 423.447 203.794 422.84 204.335 422.317C204.877 421.795 205.493 421.328 206.183 420.917C206.911 420.488 207.658 420.096 208.423 419.741C209.189 419.387 209.898 419.013 210.551 418.621C211.205 418.229 211.727 417.763 212.119 417.221C212.53 416.661 212.735 415.971 212.735 415.149C212.735 414.496 212.595 413.908 212.315 413.385C212.035 412.844 211.615 412.415 211.055 412.097C210.495 411.78 209.777 411.621 208.899 411.621C208.022 411.621 207.229 411.771 206.519 412.069C205.829 412.368 205.231 412.723 204.727 413.133C204.223 413.544 203.822 413.936 203.523 414.309L201.927 412.713C202.077 412.527 202.338 412.247 202.711 411.873C203.103 411.5 203.598 411.117 204.195 410.725C204.811 410.333 205.53 410.007 206.351 409.745C207.173 409.465 208.106 409.325 209.151 409.325C210.551 409.325 211.718 409.587 212.651 410.109C213.585 410.632 214.285 411.332 214.751 412.209C215.237 413.087 215.479 414.057 215.479 415.121C215.479 416.073 215.302 416.895 214.947 417.585C214.593 418.257 214.135 418.827 213.575 419.293C213.015 419.76 212.399 420.171 211.727 420.525C211.074 420.88 210.439 421.216 209.823 421.533C208.647 422.093 207.714 422.607 207.023 423.073C206.333 423.54 205.801 423.997 205.427 424.445C205.073 424.875 204.83 425.313 204.699 425.761C204.587 426.209 204.522 426.695 204.503 427.217H215.507V429.457H201.787Z" fill="#333333"/>
<g filter="url(#filter17_di_229_1963)">
<rect x="273.865" y="389.515" width="95.1994" height="60.1835" rx="4" fill="url(#paint17_radial_229_1963)"/>
<rect x="273.365" y="389.015" width="96.1994" height="61.1835" rx="4.5" stroke="#D7D7D7"/>
</g>
<path d="M327.017 427.217V429.457H317.133V427.217H320.941V411.957C320.792 412.181 320.549 412.433 320.213 412.713C319.877 412.975 319.485 413.236 319.037 413.497C318.608 413.74 318.169 413.945 317.721 414.113C317.273 414.281 316.863 414.365 316.489 414.365V412.069C316.993 412.069 317.497 411.939 318.001 411.677C318.524 411.416 319 411.108 319.429 410.753C319.877 410.399 320.232 410.081 320.493 409.801C320.773 409.521 320.923 409.372 320.941 409.353H323.461V427.217H327.017Z" fill="#333333"/>
<g filter="url(#filter18_di_229_1963)">
<rect x="387.667" y="389.515" width="95.1994" height="60.1835" rx="4" fill="url(#paint18_radial_229_1963)"/>
<rect x="387.167" y="389.015" width="96.1994" height="61.1835" rx="4.5" stroke="#D7D7D7"/>
</g>
<mask id="mask2_229_1963" style="mask-type:alpha" maskUnits="userSpaceOnUse" x="416" y="400" width="39" height="39">
<rect x="416.117" y="400.457" width="38.2986" height="38.2986" fill="#D9D9D9"/>
</mask>
<g mask="url(#mask2_229_1963)">
<path d="M428.154 420.154H442.379" stroke="#333333" stroke-width="2"/>
<path d="M435.266 427.266V413.041" stroke="#333333" stroke-width="2"/>
</g>
<g filter="url(#filter19_di_229_1963)">
<rect x="47.3564" y="466.112" width="95.1994" height="60.1835" rx="4" fill="url(#paint19_radial_229_1963)"/>
<rect x="46.8564" y="465.612" width="96.1994" height="61.1835" rx="4.5" stroke="#D7D7D7"/>
</g>
<path d="M94.9499 506.335C93.5873 506.297 92.3833 505.971 91.3379 505.355C90.2926 504.739 89.4153 503.936 88.7059 502.947C88.0153 501.939 87.4926 500.856 87.1379 499.699C86.7833 498.523 86.6059 497.375 86.6059 496.255C86.6059 495.06 86.7926 493.865 87.1659 492.671C87.5579 491.476 88.1179 490.393 88.8459 489.423C89.5739 488.433 90.4513 487.649 91.4779 487.071C92.5046 486.473 93.6619 486.175 94.9499 486.175C96.3313 486.175 97.5353 486.492 98.5619 487.127C99.6073 487.761 100.475 488.583 101.166 489.591C101.875 490.599 102.407 491.691 102.762 492.867C103.117 494.043 103.294 495.172 103.294 496.255C103.294 497.468 103.098 498.672 102.706 499.867C102.333 501.043 101.782 502.116 101.054 503.087C100.326 504.057 99.4486 504.841 98.4219 505.439C97.3953 506.017 96.2379 506.316 94.9499 506.335ZM89.1539 496.255C89.1913 497.169 89.3313 498.084 89.5739 498.999C89.8166 499.913 90.1806 500.753 90.6659 501.519C91.1513 502.284 91.7486 502.9 92.4579 503.367C93.1673 503.833 93.9979 504.067 94.9499 504.067C95.9393 504.067 96.7979 503.824 97.5259 503.339C98.2539 502.835 98.8513 502.191 99.3179 501.407C99.8033 500.604 100.158 499.755 100.382 498.859C100.625 497.944 100.746 497.076 100.746 496.255C100.746 495.34 100.615 494.425 100.354 493.511C100.111 492.596 99.7379 491.756 99.2339 490.991C98.7299 490.225 98.1233 489.609 97.4139 489.143C96.7046 488.676 95.8833 488.443 94.9499 488.443C93.9606 488.443 93.1019 488.695 92.3739 489.199C91.6459 489.684 91.0393 490.328 90.5539 491.131C90.0873 491.915 89.7326 492.764 89.4899 493.679C89.2659 494.575 89.1539 495.433 89.1539 496.255Z" fill="#333333"/>
<g filter="url(#filter20_di_229_1963)">
<rect x="161.157" y="466.112" width="95.1994" height="60.1835" rx="4" fill="url(#paint20_radial_229_1963)"/>
<rect x="160.657" y="465.612" width="96.1994" height="61.1835" rx="4.5" stroke="#D7D7D7"/>
</g>
<mask id="mask3_229_1963" style="mask-type:alpha" maskUnits="userSpaceOnUse" x="189" y="477" width="39" height="39">
<rect x="189.608" y="477.055" width="38.2986" height="38.2986" fill="#D9D9D9"/>
</mask>
<g mask="url(#mask3_229_1963)">
<circle cx="208.757" cy="496.204" r="1.64137" fill="#333333"/>
</g>
<g filter="url(#filter21_di_229_1963)">
<rect x="273.865" y="466.112" width="95.1994" height="60.1835" rx="4" fill="url(#paint21_radial_229_1963)"/>
<rect x="273.365" y="465.612" width="96.1994" height="61.1835" rx="4.5" stroke="#D7D7D7"/>
</g>
<mask id="mask4_229_1963" style="mask-type:alpha" maskUnits="userSpaceOnUse" x="302" y="475" width="39" height="40">
<rect x="302.316" y="475.96" width="38.2986" height="38.2986" fill="#D9D9D9"/>
</mask>
<g mask="url(#mask4_229_1963)">
<path d="M314.352 492.374H328.577" stroke="#333333" stroke-width="2"/>
<path d="M314.352 497.845H328.577" stroke="#333333" stroke-width="2"/>
</g>
<g filter="url(#filter22_di_229_1963)">
<rect x="387.667" y="466.112" width="95.1994" height="60.1835" rx="4" fill="url(#paint22_radial_229_1963)"/>
<rect x="387.167" y="465.612" width="96.1994" height="61.1835" rx="4.5" stroke="#D7D7D7"/>
</g>
<mask id="mask5_229_1963" style="mask-type:alpha" maskUnits="userSpaceOnUse" x="416" y="475" width="39" height="40">
<rect x="416.117" y="475.96" width="38.2986" height="38.2986" fill="#D9D9D9"/>
</mask>
<g mask="url(#mask5_229_1963)">
<path d="M428.154 495.657H442.379" stroke="#333333" stroke-width="2"/>
</g>
<path d="M276.594 98.2266V101.728H261.144V98.2266H267.096V74.372C266.863 74.7222 266.484 75.1161 265.958 75.5538C265.433 75.9623 264.82 76.3708 264.12 76.7794C263.449 77.1587 262.763 77.4797 262.063 77.7423C261.363 78.0049 260.721 78.1362 260.137 78.1362V74.5471C260.925 74.5471 261.713 74.3428 262.501 73.9343C263.318 73.5258 264.062 73.0443 264.733 72.4899C265.433 71.9355 265.988 71.4394 266.396 71.0017C266.834 70.564 267.067 70.3306 267.096 70.3014H271.036V98.2266H276.594Z" fill="white"/>
<path d="M279.589 101.728C279.589 99.9774 279.734 98.4308 280.026 97.0886C280.347 95.7171 280.8 94.4916 281.383 93.4119C281.996 92.3322 282.725 91.3839 283.572 90.5669C284.418 89.7498 285.381 89.0203 286.46 88.3784C287.598 87.7072 288.766 87.0945 289.962 86.54C291.158 85.9856 292.267 85.402 293.289 84.7892C294.31 84.1765 295.127 83.447 295.74 82.6007C296.382 81.7254 296.703 80.6457 296.703 79.3618C296.703 78.3405 296.484 77.4213 296.046 76.6043C295.608 75.7581 294.952 75.0869 294.076 74.5909C293.201 74.0948 292.078 73.8468 290.706 73.8468C289.335 73.8468 288.094 74.0802 286.986 74.5471C285.906 75.014 284.972 75.5684 284.184 76.2104C283.397 76.8523 282.769 77.4651 282.302 78.0487L279.807 75.5538C280.041 75.262 280.449 74.8243 281.033 74.2407C281.646 73.6571 282.419 73.0589 283.353 72.4461C284.316 71.8334 285.439 71.3227 286.723 70.9142C288.007 70.4765 289.466 70.2577 291.1 70.2577C293.289 70.2577 295.112 70.6662 296.571 71.4832C298.03 72.3002 299.124 73.3945 299.854 74.7659C300.613 76.1374 300.992 77.6548 300.992 79.318C300.992 80.8062 300.715 82.0901 300.16 83.1698C299.606 84.2202 298.891 85.1102 298.016 85.8397C297.14 86.5692 296.177 87.2112 295.127 87.7656C294.106 88.32 293.113 88.8452 292.15 89.3413C290.312 90.2167 288.853 91.0191 287.774 91.7486C286.694 92.4781 285.862 93.1931 285.279 93.8934C284.724 94.5645 284.345 95.2502 284.141 95.9506C283.966 96.6509 283.863 97.4095 283.834 98.2266H301.036V101.728H279.589Z" fill="white"/>
<path d="M339.062 91.4423C339.062 93.4265 338.566 95.2356 337.574 96.8697C336.611 98.4746 335.283 99.7585 333.591 100.721C331.927 101.684 330.045 102.166 327.944 102.166C325.727 102.166 323.772 101.641 322.079 100.59C320.387 99.5105 319.059 97.964 318.096 95.9506C317.162 93.9371 316.695 91.5444 316.695 88.7723C316.695 84.6871 317.177 81.2877 318.14 78.5739C319.103 75.8602 320.46 73.8322 322.21 72.4899C323.961 71.1185 326.004 70.4327 328.338 70.4327C330.352 70.4327 332.175 70.9288 333.809 71.9209C335.473 72.8838 336.771 74.2261 337.705 75.9477L335.341 78.2675C334.699 76.8961 333.751 75.8164 332.496 75.0286C331.242 74.2115 329.841 73.803 328.294 73.803C326.719 73.803 325.333 74.2845 324.136 75.2474C322.94 76.2104 322.006 77.5964 321.335 79.4056C320.693 81.2147 320.358 83.4032 320.328 85.971C320.766 84.9497 321.379 84.0743 322.167 83.3448C322.955 82.5862 323.874 82.0026 324.924 81.594C326.004 81.1855 327.142 80.9813 328.338 80.9813C330.352 80.9813 332.161 81.4481 333.766 82.3819C335.4 83.3157 336.684 84.5704 337.617 86.1461C338.58 87.7218 339.062 89.4872 339.062 91.4423ZM327.988 98.8394C329.33 98.8394 330.556 98.5038 331.665 97.8327C332.803 97.1615 333.707 96.2715 334.378 95.1627C335.05 94.0247 335.385 92.7845 335.385 91.4423C335.385 90.1 335.05 88.8744 334.378 87.7656C333.707 86.6568 332.803 85.7668 331.665 85.0956C330.556 84.4245 329.33 84.0889 327.988 84.0889C326.646 84.0889 325.406 84.4245 324.268 85.0956C323.159 85.7668 322.269 86.6568 321.598 87.7656C320.927 88.8744 320.591 90.1 320.591 91.4423C320.591 92.7845 320.927 94.0247 321.598 95.1627C322.269 96.2715 323.159 97.1615 324.268 97.8327C325.406 98.5038 326.646 98.8394 327.988 98.8394Z" fill="white"/>
<path d="M356.808 101.728V93.8058H342.189V90.348L357.99 70.6516H360.66V90.3042H364.512V93.8058H360.66V101.728H356.808ZM346.216 90.3042H357.202V76.5605L346.216 90.3042Z" fill="white"/>
<path d="M390.299 92.9304C390.299 94.7688 389.788 96.3737 388.767 97.7451C387.774 99.1166 386.432 100.182 384.74 100.94C383.077 101.699 381.253 102.078 379.269 102.078C377.197 102.078 375.344 101.67 373.71 100.853C372.076 100.007 370.777 98.8831 369.814 97.4825C368.881 96.0819 368.414 94.5061 368.414 92.7554C368.414 91.4714 368.705 90.3188 369.289 89.2975C369.873 88.2762 370.602 87.4154 371.478 86.7151C372.382 85.9856 373.301 85.4458 374.235 85.0956C373.389 84.7163 372.601 84.2202 371.871 83.6075C371.142 82.9947 370.558 82.2798 370.121 81.4627C369.683 80.6457 369.464 79.7557 369.464 78.7928C369.464 77.4797 369.756 76.3271 370.34 75.335C370.923 74.3137 371.696 73.4529 372.659 72.7525C373.622 72.0522 374.687 71.527 375.855 71.1768C377.022 70.8267 378.189 70.6516 379.356 70.6516C380.523 70.6516 381.69 70.8267 382.858 71.1768C384.025 71.527 385.09 72.0522 386.053 72.7525C387.045 73.4237 387.833 74.2699 388.416 75.2912C389 76.2833 389.292 77.4359 389.292 78.749C389.292 79.7119 389.073 80.6165 388.635 81.4627C388.198 82.2798 387.599 82.9947 386.841 83.6075C386.111 84.2202 385.309 84.7163 384.433 85.0956C385.484 85.5041 386.447 86.0877 387.322 86.8464C388.227 87.5759 388.942 88.4513 389.467 89.4726C390.021 90.4939 390.299 91.6465 390.299 92.9304ZM386.403 92.6678C386.403 91.7341 386.199 90.9024 385.79 90.1729C385.382 89.4143 384.827 88.7869 384.127 88.2908C383.427 87.7656 382.653 87.3717 381.807 87.109C380.99 86.8464 380.159 86.7151 379.312 86.7151C378.145 86.7151 377.022 86.9631 375.942 87.4592C374.892 87.9553 374.031 88.6556 373.36 89.5602C372.688 90.4356 372.353 91.486 372.353 92.7116C372.353 93.6162 372.557 94.4332 372.966 95.1627C373.374 95.8922 373.914 96.5196 374.585 97.0448C375.285 97.57 376.044 97.964 376.861 98.2266C377.707 98.4892 378.554 98.6205 379.4 98.6205C380.567 98.6205 381.676 98.3725 382.726 97.8764C383.806 97.3804 384.681 96.68 385.353 95.7755C386.053 94.8709 386.403 93.835 386.403 92.6678ZM373.36 78.9241C373.36 79.9454 373.666 80.8208 374.279 81.5503C374.892 82.2798 375.665 82.8342 376.599 83.2135C377.532 83.5637 378.452 83.7388 379.356 83.7388C380.29 83.7388 381.209 83.5491 382.114 83.1698C383.047 82.7904 383.821 82.236 384.433 81.5065C385.046 80.777 385.353 79.887 385.353 78.8365C385.353 77.8444 385.061 76.9982 384.477 76.2979C383.923 75.5976 383.179 75.0577 382.245 74.6784C381.34 74.2991 380.363 74.1094 379.312 74.1094C378.291 74.1094 377.313 74.3137 376.38 74.7222C375.475 75.1015 374.746 75.6559 374.191 76.3854C373.637 77.0857 373.36 77.932 373.36 78.9241Z" fill="white"/>
<path d="M395.229 101.728V96.8259H398.468V101.728H395.229Z" fill="white"/>
<path d="M412.963 102.166C410.745 102.166 408.746 101.641 406.966 100.59C405.216 99.5397 403.873 98.1245 402.939 96.3445L405.347 94.2435C406.164 95.5858 407.244 96.6655 408.586 97.4825C409.957 98.2995 411.431 98.7081 413.007 98.7081C414.349 98.7081 415.545 98.4163 416.596 97.8327C417.646 97.2491 418.478 96.4466 419.091 95.4253C419.703 94.404 420.01 93.2222 420.01 91.88C420.01 90.5669 419.703 89.4143 419.091 88.4221C418.507 87.43 417.705 86.6568 416.683 86.1023C415.691 85.5187 414.568 85.2269 413.313 85.2269C412.087 85.2269 410.92 85.5041 409.811 86.0586C408.703 86.613 407.813 87.4008 407.141 88.4221H403.64L407.141 70.6516H422.242V74.1969H409.986L408.104 84.0889C408.746 83.3886 409.549 82.8488 410.512 82.4694C411.504 82.0901 412.598 81.9004 413.794 81.9004C415.72 81.9004 417.442 82.3235 418.959 83.1698C420.506 84.016 421.717 85.1832 422.592 86.6713C423.497 88.1303 423.949 89.8374 423.949 91.7924C423.949 93.835 423.453 95.6442 422.461 97.2199C421.498 98.7664 420.185 99.9774 418.522 100.853C416.887 101.728 415.035 102.166 412.963 102.166Z" fill="white"/>
<path d="M427.609 81.1563C427.609 79.1429 428.09 77.3338 429.053 75.7289C430.045 74.0948 431.388 72.8109 433.08 71.8771C434.773 70.9142 436.655 70.4327 438.726 70.4327C440.973 70.4327 442.928 70.9726 444.592 72.0522C446.284 73.1027 447.597 74.62 448.531 76.6043C449.494 78.5885 449.975 80.9813 449.975 83.7825C449.975 87.8677 449.494 91.2818 448.531 94.0247C447.568 96.7384 446.211 98.781 444.46 100.152C442.71 101.495 440.667 102.166 438.333 102.166C436.319 102.166 434.481 101.684 432.818 100.721C431.183 99.7293 429.9 98.3579 428.966 96.6071L431.329 94.2873C431.971 95.6296 432.92 96.7092 434.174 97.5263C435.458 98.3433 436.859 98.7518 438.376 98.7518C439.981 98.7518 441.367 98.2849 442.534 97.3512C443.731 96.3883 444.665 95.0022 445.336 93.1931C446.007 91.3839 446.342 89.1954 446.342 86.6276C445.934 87.6197 445.321 88.4951 444.504 89.2538C443.716 90.0124 442.797 90.596 441.747 91.0046C440.696 91.4131 439.558 91.6173 438.333 91.6173C436.348 91.6173 434.539 91.1505 432.905 90.2167C431.271 89.2829 429.972 88.0282 429.01 86.4525C428.076 84.8476 427.609 83.0822 427.609 81.1563ZM438.683 73.7155C437.34 73.7155 436.115 74.051 435.006 74.7222C433.897 75.3933 433.007 76.2979 432.336 77.4359C431.665 78.5447 431.329 79.7703 431.329 81.1126C431.329 82.4549 431.665 83.6804 432.336 84.7892C433.007 85.8981 433.897 86.7881 435.006 87.4592C436.144 88.1303 437.384 88.4659 438.726 88.4659C440.069 88.4659 441.294 88.1303 442.403 87.4592C443.541 86.7881 444.446 85.8981 445.117 84.7892C445.788 83.6804 446.124 82.4694 446.124 81.1563C446.124 79.8141 445.773 78.5885 445.073 77.4797C444.402 76.3417 443.497 75.4371 442.359 74.7659C441.251 74.0656 440.025 73.7155 438.683 73.7155Z" fill="white"/>
<defs>
<filter id="filter0_d_229_1963" x="0" y="0" width="530.222" height="591.5" filterUnits="userSpaceOnUse" color-interpolation-filters="sRGB">
<feFlood flood-opacity="0" result="BackgroundImageFix"/>
<feColorMatrix in="SourceAlpha" type="matrix" values="0 0 0 0 0 0 0 0 0 0 0 0 0 0 0 0 0 0 127 0" result="hardAlpha"/>
<feOffset dy="8"/>
<feGaussianBlur stdDeviation="10"/>
<feComposite in2="hardAlpha" operator="out"/>
<feColorMatrix type="matrix" values="0 0 0 0 0.80434 0 0 0 0 0.837558 0 0 0 0 0.854167 0 0 0 1 0"/>
<feBlend mode="normal" in2="BackgroundImageFix" result="effect1_dropShadow_229_1963"/>
<feBlend mode="normal" in="SourceGraphic" in2="effect1_dropShadow_229_1963" result="shape"/>
</filter>
<filter id="filter1_d_229_1963" x="46.3564" y="38.3561" width="437.51" height="99.1994" filterUnits="userSpaceOnUse" color-interpolation-filters="sRGB">
<feFlood flood-opacity="0" result="BackgroundImageFix"/>
<feColorMatrix in="SourceAlpha" type="matrix" values="0 0 0 0 0 0 0 0 0 0 0 0 0 0 0 0 0 0 127 0" result="hardAlpha"/>
<feOffset dy="2"/>
<feComposite in2="hardAlpha" operator="out"/>
<feColorMatrix type="matrix" values="0 0 0 0 0.180392 0 0 0 0 0.180392 0 0 0 0 0.180392 0 0 0 1 0"/>
<feBlend mode="normal" in2="BackgroundImageFix" result="effect1_dropShadow_229_1963"/>
<feBlend mode="normal" in="SourceGraphic" in2="effect1_dropShadow_229_1963" result="shape"/>
</filter>
<filter id="filter2_i_229_1963" x="56.1101" y="46.1101" width="418.002" height="77.503" filterUnits="userSpaceOnUse" color-interpolation-filters="sRGB">
<feFlood flood-opacity="0" result="BackgroundImageFix"/>
<feBlend mode="normal" in="SourceGraphic" in2="BackgroundImageFix" result="shape"/>
<feColorMatrix in="SourceAlpha" type="matrix" values="0 0 0 0 0 0 0 0 0 0 0 0 0 0 0 0 0 0 127 0" result="hardAlpha"/>
<feOffset dy="-2"/>
<feGaussianBlur stdDeviation="4"/>
<feComposite in2="hardAlpha" operator="arithmetic" k2="-1" k3="1"/>
<feColorMatrix type="matrix" values="0 0 0 0 1 0 0 0 0 1 0 0 0 0 1 0 0 0 0.1 0"/>
<feBlend mode="normal" in2="shape" result="effect1_innerShadow_229_1963"/>
</filter>
<filter id="filter3_di_229_1963" x="46.3564" y="158.723" width="97.1995" height="63.1835" filterUnits="userSpaceOnUse" color-interpolation-filters="sRGB">
<feFlood flood-opacity="0" result="BackgroundImageFix"/>
<feColorMatrix in="SourceAlpha" type="matrix" values="0 0 0 0 0 0 0 0 0 0 0 0 0 0 0 0 0 0 127 0" result="hardAlpha"/>
<feOffset dy="1"/>
<feComposite in2="hardAlpha" operator="out"/>
<feColorMatrix type="matrix" values="0 0 0 0 0.843137 0 0 0 0 0.843137 0 0 0 0 0.843137 0 0 0 1 0"/>
<feBlend mode="normal" in2="BackgroundImageFix" result="effect1_dropShadow_229_1963"/>
<feBlend mode="normal" in="SourceGraphic" in2="effect1_dropShadow_229_1963" result="shape"/>
<feColorMatrix in="SourceAlpha" type="matrix" values="0 0 0 0 0 0 0 0 0 0 0 0 0 0 0 0 0 0 127 0" result="hardAlpha"/>
<feMorphology radius="2" operator="erode" in="SourceAlpha" result="effect2_innerShadow_229_1963"/>
<feOffset dy="1"/>
<feGaussianBlur stdDeviation="0.5"/>
<feComposite in2="hardAlpha" operator="arithmetic" k2="-1" k3="1"/>
<feColorMatrix type="matrix" values="0 0 0 0 0.984314 0 0 0 0 0.984314 0 0 0 0 0.984314 0 0 0 1 0"/>
<feBlend mode="normal" in2="shape" result="effect2_innerShadow_229_1963"/>
</filter>
<filter id="filter4_di_229_1963" x="160.157" y="158.723" width="97.1995" height="63.1835" filterUnits="userSpaceOnUse" color-interpolation-filters="sRGB">
<feFlood flood-opacity="0" result="BackgroundImageFix"/>
<feColorMatrix in="SourceAlpha" type="matrix" values="0 0 0 0 0 0 0 0 0 0 0 0 0 0 0 0 0 0 127 0" result="hardAlpha"/>
<feOffset dy="1"/>
<feComposite in2="hardAlpha" operator="out"/>
<feColorMatrix type="matrix" values="0 0 0 0 0.843137 0 0 0 0 0.843137 0 0 0 0 0.843137 0 0 0 1 0"/>
<feBlend mode="normal" in2="BackgroundImageFix" result="effect1_dropShadow_229_1963"/>
<feBlend mode="normal" in="SourceGraphic" in2="effect1_dropShadow_229_1963" result="shape"/>
<feColorMatrix in="SourceAlpha" type="matrix" values="0 0 0 0 0 0 0 0 0 0 0 0 0 0 0 0 0 0 127 0" result="hardAlpha"/>
<feMorphology radius="2" operator="erode" in="SourceAlpha" result="effect2_innerShadow_229_1963"/>
<feOffset dy="1"/>
<feGaussianBlur stdDeviation="0.5"/>
<feComposite in2="hardAlpha" operator="arithmetic" k2="-1" k3="1"/>
<feColorMatrix type="matrix" values="0 0 0 0 0.984314 0 0 0 0 0.984314 0 0 0 0 0.984314 0 0 0 1 0"/>
<feBlend mode="normal" in2="shape" result="effect2_innerShadow_229_1963"/>
</filter>
<filter id="filter5_di_229_1963" x="272.865" y="158.723" width="97.1995" height="63.1835" filterUnits="userSpaceOnUse" color-interpolation-filters="sRGB">
<feFlood flood-opacity="0" result="BackgroundImageFix"/>
<feColorMatrix in="SourceAlpha" type="matrix" values="0 0 0 0 0 0 0 0 0 0 0 0 0 0 0 0 0 0 127 0" result="hardAlpha"/>
<feOffset dy="1"/>
<feComposite in2="hardAlpha" operator="out"/>
<feColorMatrix type="matrix" values="0 0 0 0 0.843137 0 0 0 0 0.843137 0 0 0 0 0.843137 0 0 0 1 0"/>
<feBlend mode="normal" in2="BackgroundImageFix" result="effect1_dropShadow_229_1963"/>
<feBlend mode="normal" in="SourceGraphic" in2="effect1_dropShadow_229_1963" result="shape"/>
<feColorMatrix in="SourceAlpha" type="matrix" values="0 0 0 0 0 0 0 0 0 0 0 0 0 0 0 0 0 0 127 0" result="hardAlpha"/>
<feMorphology radius="2" operator="erode" in="SourceAlpha" result="effect2_innerShadow_229_1963"/>
<feOffset dy="1"/>
<feGaussianBlur stdDeviation="0.5"/>
<feComposite in2="hardAlpha" operator="arithmetic" k2="-1" k3="1"/>
<feColorMatrix type="matrix" values="0 0 0 0 0.984314 0 0 0 0 0.984314 0 0 0 0 0.984314 0 0 0 1 0"/>
<feBlend mode="normal" in2="shape" result="effect2_innerShadow_229_1963"/>
</filter>
<filter id="filter6_di_229_1963" x="386.667" y="158.723" width="97.1995" height="63.1835" filterUnits="userSpaceOnUse" color-interpolation-filters="sRGB">
<feFlood flood-opacity="0" result="BackgroundImageFix"/>
<feColorMatrix in="SourceAlpha" type="matrix" values="0 0 0 0 0 0 0 0 0 0 0 0 0 0 0 0 0 0 127 0" result="hardAlpha"/>
<feOffset dy="1"/>
<feComposite in2="hardAlpha" operator="out"/>
<feColorMatrix type="matrix" values="0 0 0 0 0.843137 0 0 0 0 0.843137 0 0 0 0 0.843137 0 0 0 1 0"/>
<feBlend mode="normal" in2="BackgroundImageFix" result="effect1_dropShadow_229_1963"/>
<feBlend mode="normal" in="SourceGraphic" in2="effect1_dropShadow_229_1963" result="shape"/>
<feColorMatrix in="SourceAlpha" type="matrix" values="0 0 0 0 0 0 0 0 0 0 0 0 0 0 0 0 0 0 127 0" result="hardAlpha"/>
<feMorphology radius="2" operator="erode" in="SourceAlpha" result="effect2_innerShadow_229_1963"/>
<feOffset dy="1"/>
<feGaussianBlur stdDeviation="0.5"/>
<feComposite in2="hardAlpha" operator="arithmetic" k2="-1" k3="1"/>
<feColorMatrix type="matrix" values="0 0 0 0 0.984314 0 0 0 0 0.984314 0 0 0 0 0.984314 0 0 0 1 0"/>
<feBlend mode="normal" in2="shape" result="effect2_innerShadow_229_1963"/>
</filter>
<filter id="filter7_di_229_1963" x="46.3564" y="235.32" width="97.1995" height="63.1835" filterUnits="userSpaceOnUse" color-interpolation-filters="sRGB">
<feFlood flood-opacity="0" result="BackgroundImageFix"/>
<feColorMatrix in="SourceAlpha" type="matrix" values="0 0 0 0 0 0 0 0 0 0 0 0 0 0 0 0 0 0 127 0" result="hardAlpha"/>
<feOffset dy="1"/>
<feComposite in2="hardAlpha" operator="out"/>
<feColorMatrix type="matrix" values="0 0 0 0 0.843137 0 0 0 0 0.843137 0 0 0 0 0.843137 0 0 0 1 0"/>
<feBlend mode="normal" in2="BackgroundImageFix" result="effect1_dropShadow_229_1963"/>
<feBlend mode="normal" in="SourceGraphic" in2="effect1_dropShadow_229_1963" result="shape"/>
<feColorMatrix in="SourceAlpha" type="matrix" values="0 0 0 0 0 0 0 0 0 0 0 0 0 0 0 0 0 0 127 0" result="hardAlpha"/>
<feMorphology radius="2" operator="erode" in="SourceAlpha" result="effect2_innerShadow_229_1963"/>
<feOffset dy="1"/>
<feGaussianBlur stdDeviation="0.5"/>
<feComposite in2="hardAlpha" operator="arithmetic" k2="-1" k3="1"/>
<feColorMatrix type="matrix" values="0 0 0 0 0.984314 0 0 0 0 0.984314 0 0 0 0 0.984314 0 0 0 1 0"/>
<feBlend mode="normal" in2="shape" result="effect2_innerShadow_229_1963"/>
</filter>
<filter id="filter8_di_229_1963" x="160.157" y="235.32" width="97.1995" height="63.1835" filterUnits="userSpaceOnUse" color-interpolation-filters="sRGB">
<feFlood flood-opacity="0" result="BackgroundImageFix"/>
<feColorMatrix in="SourceAlpha" type="matrix" values="0 0 0 0 0 0 0 0 0 0 0 0 0 0 0 0 0 0 127 0" result="hardAlpha"/>
<feOffset dy="1"/>
<feComposite in2="hardAlpha" operator="out"/>
<feColorMatrix type="matrix" values="0 0 0 0 0.843137 0 0 0 0 0.843137 0 0 0 0 0.843137 0 0 0 1 0"/>
<feBlend mode="normal" in2="BackgroundImageFix" result="effect1_dropShadow_229_1963"/>
<feBlend mode="normal" in="SourceGraphic" in2="effect1_dropShadow_229_1963" result="shape"/>
<feColorMatrix in="SourceAlpha" type="matrix" values="0 0 0 0 0 0 0 0 0 0 0 0 0 0 0 0 0 0 127 0" result="hardAlpha"/>
<feMorphology radius="2" operator="erode" in="SourceAlpha" result="effect2_innerShadow_229_1963"/>
<feOffset dy="1"/>
<feGaussianBlur stdDeviation="0.5"/>
<feComposite in2="hardAlpha" operator="arithmetic" k2="-1" k3="1"/>
<feColorMatrix type="matrix" values="0 0 0 0 0.984314 0 0 0 0 0.984314 0 0 0 0 0.984314 0 0 0 1 0"/>
<feBlend mode="normal" in2="shape" result="effect2_innerShadow_229_1963"/>
</filter>
<filter id="filter9_di_229_1963" x="272.865" y="235.32" width="97.1995" height="63.1835" filterUnits="userSpaceOnUse" color-interpolation-filters="sRGB">
<feFlood flood-opacity="0" result="BackgroundImageFix"/>
<feColorMatrix in="SourceAlpha" type="matrix" values="0 0 0 0 0 0 0 0 0 0 0 0 0 0 0 0 0 0 127 0" result="hardAlpha"/>
<feOffset dy="1"/>
<feComposite in2="hardAlpha" operator="out"/>
<feColorMatrix type="matrix" values="0 0 0 0 0.843137 0 0 0 0 0.843137 0 0 0 0 0.843137 0 0 0 1 0"/>
<feBlend mode="normal" in2="BackgroundImageFix" result="effect1_dropShadow_229_1963"/>
<feBlend mode="normal" in="SourceGraphic" in2="effect1_dropShadow_229_1963" result="shape"/>
<feColorMatrix in="SourceAlpha" type="matrix" values="0 0 0 0 0 0 0 0 0 0 0 0 0 0 0 0 0 0 127 0" result="hardAlpha"/>
<feMorphology radius="2" operator="erode" in="SourceAlpha" result="effect2_innerShadow_229_1963"/>
<feOffset dy="1"/>
<feGaussianBlur stdDeviation="0.5"/>
<feComposite in2="hardAlpha" operator="arithmetic" k2="-1" k3="1"/>
<feColorMatrix type="matrix" values="0 0 0 0 0.984314 0 0 0 0 0.984314 0 0 0 0 0.984314 0 0 0 1 0"/>
<feBlend mode="normal" in2="shape" result="effect2_innerShadow_229_1963"/>
</filter>
<filter id="filter10_di_229_1963" x="386.667" y="235.32" width="97.1995" height="63.1835" filterUnits="userSpaceOnUse" color-interpolation-filters="sRGB">
<feFlood flood-opacity="0" result="BackgroundImageFix"/>
<feColorMatrix in="SourceAlpha" type="matrix" values="0 0 0 0 0 0 0 0 0 0 0 0 0 0 0 0 0 0 127 0" result="hardAlpha"/>
<feOffset dy="1"/>
<feComposite in2="hardAlpha" operator="out"/>
<feColorMatrix type="matrix" values="0 0 0 0 0.843137 0 0 0 0 0.843137 0 0 0 0 0.843137 0 0 0 1 0"/>
<feBlend mode="normal" in2="BackgroundImageFix" result="effect1_dropShadow_229_1963"/>
<feBlend mode="normal" in="SourceGraphic" in2="effect1_dropShadow_229_1963" result="shape"/>
<feColorMatrix in="SourceAlpha" type="matrix" values="0 0 0 0 0 0 0 0 0 0 0 0 0 0 0 0 0 0 127 0" result="hardAlpha"/>
<feMorphology radius="2" operator="erode" in="SourceAlpha" result="effect2_innerShadow_229_1963"/>
<feOffset dy="1"/>
<feGaussianBlur stdDeviation="0.5"/>
<feComposite in2="hardAlpha" operator="arithmetic" k2="-1" k3="1"/>
<feColorMatrix type="matrix" values="0 0 0 0 0.984314 0 0 0 0 0.984314 0 0 0 0 0.984314 0 0 0 1 0"/>
<feBlend mode="normal" in2="shape" result="effect2_innerShadow_229_1963"/>
</filter>
<filter id="filter11_di_229_1963" x="46.3564" y="311.918" width="97.1995" height="63.1835" filterUnits="userSpaceOnUse" color-interpolation-filters="sRGB">
<feFlood flood-opacity="0" result="BackgroundImageFix"/>
<feColorMatrix in="SourceAlpha" type="matrix" values="0 0 0 0 0 0 0 0 0 0 0 0 0 0 0 0 0 0 127 0" result="hardAlpha"/>
<feOffset dy="1"/>
<feComposite in2="hardAlpha" operator="out"/>
<feColorMatrix type="matrix" values="0 0 0 0 0.843137 0 0 0 0 0.843137 0 0 0 0 0.843137 0 0 0 1 0"/>
<feBlend mode="normal" in2="BackgroundImageFix" result="effect1_dropShadow_229_1963"/>
<feBlend mode="normal" in="SourceGraphic" in2="effect1_dropShadow_229_1963" result="shape"/>
<feColorMatrix in="SourceAlpha" type="matrix" values="0 0 0 0 0 0 0 0 0 0 0 0 0 0 0 0 0 0 127 0" result="hardAlpha"/>
<feMorphology radius="2" operator="erode" in="SourceAlpha" result="effect2_innerShadow_229_1963"/>
<feOffset dy="1"/>
<feGaussianBlur stdDeviation="0.5"/>
<feComposite in2="hardAlpha" operator="arithmetic" k2="-1" k3="1"/>
<feColorMatrix type="matrix" values="0 0 0 0 0.984314 0 0 0 0 0.984314 0 0 0 0 0.984314 0 0 0 1 0"/>
<feBlend mode="normal" in2="shape" result="effect2_innerShadow_229_1963"/>
</filter>
<filter id="filter12_di_229_1963" x="160.157" y="311.918" width="97.1995" height="63.1835" filterUnits="userSpaceOnUse" color-interpolation-filters="sRGB">
<feFlood flood-opacity="0" result="BackgroundImageFix"/>
<feColorMatrix in="SourceAlpha" type="matrix" values="0 0 0 0 0 0 0 0 0 0 0 0 0 0 0 0 0 0 127 0" result="hardAlpha"/>
<feOffset dy="1"/>
<feComposite in2="hardAlpha" operator="out"/>
<feColorMatrix type="matrix" values="0 0 0 0 0.843137 0 0 0 0 0.843137 0 0 0 0 0.843137 0 0 0 1 0"/>
<feBlend mode="normal" in2="BackgroundImageFix" result="effect1_dropShadow_229_1963"/>
<feBlend mode="normal" in="SourceGraphic" in2="effect1_dropShadow_229_1963" result="shape"/>
<feColorMatrix in="SourceAlpha" type="matrix" values="0 0 0 0 0 0 0 0 0 0 0 0 0 0 0 0 0 0 127 0" result="hardAlpha"/>
<feMorphology radius="2" operator="erode" in="SourceAlpha" result="effect2_innerShadow_229_1963"/>
<feOffset dy="1"/>
<feGaussianBlur stdDeviation="0.5"/>
<feComposite in2="hardAlpha" operator="arithmetic" k2="-1" k3="1"/>
<feColorMatrix type="matrix" values="0 0 0 0 0.984314 0 0 0 0 0.984314 0 0 0 0 0.984314 0 0 0 1 0"/>
<feBlend mode="normal" in2="shape" result="effect2_innerShadow_229_1963"/>
</filter>
<filter id="filter13_di_229_1963" x="272.865" y="311.918" width="97.1995" height="63.1835" filterUnits="userSpaceOnUse" color-interpolation-filters="sRGB">
<feFlood flood-opacity="0" result="BackgroundImageFix"/>
<feColorMatrix in="SourceAlpha" type="matrix" values="0 0 0 0 0 0 0 0 0 0 0 0 0 0 0 0 0 0 127 0" result="hardAlpha"/>
<feOffset dy="1"/>
<feComposite in2="hardAlpha" operator="out"/>
<feColorMatrix type="matrix" values="0 0 0 0 0.843137 0 0 0 0 0.843137 0 0 0 0 0.843137 0 0 0 1 0"/>
<feBlend mode="normal" in2="BackgroundImageFix" result="effect1_dropShadow_229_1963"/>
<feBlend mode="normal" in="SourceGraphic" in2="effect1_dropShadow_229_1963" result="shape"/>
<feColorMatrix in="SourceAlpha" type="matrix" values="0 0 0 0 0 0 0 0 0 0 0 0 0 0 0 0 0 0 127 0" result="hardAlpha"/>
<feMorphology radius="2" operator="erode" in="SourceAlpha" result="effect2_innerShadow_229_1963"/>
<feOffset dy="1"/>
<feGaussianBlur stdDeviation="0.5"/>
<feComposite in2="hardAlpha" operator="arithmetic" k2="-1" k3="1"/>
<feColorMatrix type="matrix" values="0 0 0 0 0.984314 0 0 0 0 0.984314 0 0 0 0 0.984314 0 0 0 1 0"/>
<feBlend mode="normal" in2="shape" result="effect2_innerShadow_229_1963"/>
</filter>
<filter id="filter14_di_229_1963" x="386.667" y="311.918" width="97.1995" height="63.1835" filterUnits="userSpaceOnUse" color-interpolation-filters="sRGB">
<feFlood flood-opacity="0" result="BackgroundImageFix"/>
<feColorMatrix in="SourceAlpha" type="matrix" values="0 0 0 0 0 0 0 0 0 0 0 0 0 0 0 0 0 0 127 0" result="hardAlpha"/>
<feOffset dy="1"/>
<feComposite in2="hardAlpha" operator="out"/>
<feColorMatrix type="matrix" values="0 0 0 0 0.843137 0 0 0 0 0.843137 0 0 0 0 0.843137 0 0 0 1 0"/>
<feBlend mode="normal" in2="BackgroundImageFix" result="effect1_dropShadow_229_1963"/>
<feBlend mode="normal" in="SourceGraphic" in2="effect1_dropShadow_229_1963" result="shape"/>
<feColorMatrix in="SourceAlpha" type="matrix" values="0 0 0 0 0 0 0 0 0 0 0 0 0 0 0 0 0 0 127 0" result="hardAlpha"/>
<feMorphology radius="2" operator="erode" in="SourceAlpha" result="effect2_innerShadow_229_1963"/>
<feOffset dy="1"/>
<feGaussianBlur stdDeviation="0.5"/>
<feComposite in2="hardAlpha" operator="arithmetic" k2="-1" k3="1"/>
<feColorMatrix type="matrix" values="0 0 0 0 0.984314 0 0 0 0 0.984314 0 0 0 0 0.984314 0 0 0 1 0"/>
<feBlend mode="normal" in2="shape" result="effect2_innerShadow_229_1963"/>
</filter>
<filter id="filter15_di_229_1963" x="46.3564" y="388.515" width="97.1995" height="63.1835" filterUnits="userSpaceOnUse" color-interpolation-filters="sRGB">
<feFlood flood-opacity="0" result="BackgroundImageFix"/>
<feColorMatrix in="SourceAlpha" type="matrix" values="0 0 0 0 0 0 0 0 0 0 0 0 0 0 0 0 0 0 127 0" result="hardAlpha"/>
<feOffset dy="1"/>
<feComposite in2="hardAlpha" operator="out"/>
<feColorMatrix type="matrix" values="0 0 0 0 0.843137 0 0 0 0 0.843137 0 0 0 0 0.843137 0 0 0 1 0"/>
<feBlend mode="normal" in2="BackgroundImageFix" result="effect1_dropShadow_229_1963"/>
<feBlend mode="normal" in="SourceGraphic" in2="effect1_dropShadow_229_1963" result="shape"/>
<feColorMatrix in="SourceAlpha" type="matrix" values="0 0 0 0 0 0 0 0 0 0 0 0 0 0 0 0 0 0 127 0" result="hardAlpha"/>
<feMorphology radius="2" operator="erode" in="SourceAlpha" result="effect2_innerShadow_229_1963"/>
<feOffset dy="1"/>
<feGaussianBlur stdDeviation="0.5"/>
<feComposite in2="hardAlpha" operator="arithmetic" k2="-1" k3="1"/>
<feColorMatrix type="matrix" values="0 0 0 0 0.984314 0 0 0 0 0.984314 0 0 0 0 0.984314 0 0 0 1 0"/>
<feBlend mode="normal" in2="shape" result="effect2_innerShadow_229_1963"/>
</filter>
<filter id="filter16_di_229_1963" x="160.157" y="388.515" width="97.1995" height="63.1835" filterUnits="userSpaceOnUse" color-interpolation-filters="sRGB">
<feFlood flood-opacity="0" result="BackgroundImageFix"/>
<feColorMatrix in="SourceAlpha" type="matrix" values="0 0 0 0 0 0 0 0 0 0 0 0 0 0 0 0 0 0 127 0" result="hardAlpha"/>
<feOffset dy="1"/>
<feComposite in2="hardAlpha" operator="out"/>
<feColorMatrix type="matrix" values="0 0 0 0 0.843137 0 0 0 0 0.843137 0 0 0 0 0.843137 0 0 0 1 0"/>
<feBlend mode="normal" in2="BackgroundImageFix" result="effect1_dropShadow_229_1963"/>
<feBlend mode="normal" in="SourceGraphic" in2="effect1_dropShadow_229_1963" result="shape"/>
<feColorMatrix in="SourceAlpha" type="matrix" values="0 0 0 0 0 0 0 0 0 0 0 0 0 0 0 0 0 0 127 0" result="hardAlpha"/>
<feMorphology radius="2" operator="erode" in="SourceAlpha" result="effect2_innerShadow_229_1963"/>
<feOffset dy="1"/>
<feGaussianBlur stdDeviation="0.5"/>
<feComposite in2="hardAlpha" operator="arithmetic" k2="-1" k3="1"/>
<feColorMatrix type="matrix" values="0 0 0 0 0.984314 0 0 0 0 0.984314 0 0 0 0 0.984314 0 0 0 1 0"/>
<feBlend mode="normal" in2="shape" result="effect2_innerShadow_229_1963"/>
</filter>
<filter id="filter17_di_229_1963" x="272.865" y="388.515" width="97.1995" height="63.1835" filterUnits="userSpaceOnUse" color-interpolation-filters="sRGB">
<feFlood flood-opacity="0" result="BackgroundImageFix"/>
<feColorMatrix in="SourceAlpha" type="matrix" values="0 0 0 0 0 0 0 0 0 0 0 0 0 0 0 0 0 0 127 0" result="hardAlpha"/>
<feOffset dy="1"/>
<feComposite in2="hardAlpha" operator="out"/>
<feColorMatrix type="matrix" values="0 0 0 0 0.843137 0 0 0 0 0.843137 0 0 0 0 0.843137 0 0 0 1 0"/>
<feBlend mode="normal" in2="BackgroundImageFix" result="effect1_dropShadow_229_1963"/>
<feBlend mode="normal" in="SourceGraphic" in2="effect1_dropShadow_229_1963" result="shape"/>
<feColorMatrix in="SourceAlpha" type="matrix" values="0 0 0 0 0 0 0 0 0 0 0 0 0 0 0 0 0 0 127 0" result="hardAlpha"/>
<feMorphology radius="2" operator="erode" in="SourceAlpha" result="effect2_innerShadow_229_1963"/>
<feOffset dy="1"/>
<feGaussianBlur stdDeviation="0.5"/>
<feComposite in2="hardAlpha" operator="arithmetic" k2="-1" k3="1"/>
<feColorMatrix type="matrix" values="0 0 0 0 0.984314 0 0 0 0 0.984314 0 0 0 0 0.984314 0 0 0 1 0"/>
<feBlend mode="normal" in2="shape" result="effect2_innerShadow_229_1963"/>
</filter>
<filter id="filter18_di_229_1963" x="386.667" y="388.515" width="97.1995" height="63.1835" filterUnits="userSpaceOnUse" color-interpolation-filters="sRGB">
<feFlood flood-opacity="0" result="BackgroundImageFix"/>
<feColorMatrix in="SourceAlpha" type="matrix" values="0 0 0 0 0 0 0 0 0 0 0 0 0 0 0 0 0 0 127 0" result="hardAlpha"/>
<feOffset dy="1"/>
<feComposite in2="hardAlpha" operator="out"/>
<feColorMatrix type="matrix" values="0 0 0 0 0.843137 0 0 0 0 0.843137 0 0 0 0 0.843137 0 0 0 1 0"/>
<feBlend mode="normal" in2="BackgroundImageFix" result="effect1_dropShadow_229_1963"/>
<feBlend mode="normal" in="SourceGraphic" in2="effect1_dropShadow_229_1963" result="shape"/>
<feColorMatrix in="SourceAlpha" type="matrix" values="0 0 0 0 0 0 0 0 0 0 0 0 0 0 0 0 0 0 127 0" result="hardAlpha"/>
<feMorphology radius="2" operator="erode" in="SourceAlpha" result="effect2_innerShadow_229_1963"/>
<feOffset dy="1"/>
<feGaussianBlur stdDeviation="0.5"/>
<feComposite in2="hardAlpha" operator="arithmetic" k2="-1" k3="1"/>
<feColorMatrix type="matrix" values="0 0 0 0 0.984314 0 0 0 0 0.984314 0 0 0 0 0.984314 0 0 0 1 0"/>
<feBlend mode="normal" in2="shape" result="effect2_innerShadow_229_1963"/>
</filter>
<filter id="filter19_di_229_1963" x="46.3564" y="465.112" width="97.1995" height="63.1835" filterUnits="userSpaceOnUse" color-interpolation-filters="sRGB">
<feFlood flood-opacity="0" result="BackgroundImageFix"/>
<feColorMatrix in="SourceAlpha" type="matrix" values="0 0 0 0 0 0 0 0 0 0 0 0 0 0 0 0 0 0 127 0" result="hardAlpha"/>
<feOffset dy="1"/>
<feComposite in2="hardAlpha" operator="out"/>
<feColorMatrix type="matrix" values="0 0 0 0 0.843137 0 0 0 0 0.843137 0 0 0 0 0.843137 0 0 0 1 0"/>
<feBlend mode="normal" in2="BackgroundImageFix" result="effect1_dropShadow_229_1963"/>
<feBlend mode="normal" in="SourceGraphic" in2="effect1_dropShadow_229_1963" result="shape"/>
<feColorMatrix in="SourceAlpha" type="matrix" values="0 0 0 0 0 0 0 0 0 0 0 0 0 0 0 0 0 0 127 0" result="hardAlpha"/>
<feMorphology radius="2" operator="erode" in="SourceAlpha" result="effect2_innerShadow_229_1963"/>
<feOffset dy="1"/>
<feGaussianBlur stdDeviation="0.5"/>
<feComposite in2="hardAlpha" operator="arithmetic" k2="-1" k3="1"/>
<feColorMatrix type="matrix" values="0 0 0 0 0.984314 0 0 0 0 0.984314 0 0 0 0 0.984314 0 0 0 1 0"/>
<feBlend mode="normal" in2="shape" result="effect2_innerShadow_229_1963"/>
</filter>
<filter id="filter20_di_229_1963" x="160.157" y="465.112" width="97.1995" height="63.1835" filterUnits="userSpaceOnUse" color-interpolation-filters="sRGB">
<feFlood flood-opacity="0" result="BackgroundImageFix"/>
<feColorMatrix in="SourceAlpha" type="matrix" values="0 0 0 0 0 0 0 0 0 0 0 0 0 0 0 0 0 0 127 0" result="hardAlpha"/>
<feOffset dy="1"/>
<feComposite in2="hardAlpha" operator="out"/>
<feColorMatrix type="matrix" values="0 0 0 0 0.843137 0 0 0 0 0.843137 0 0 0 0 0.843137 0 0 0 1 0"/>
<feBlend mode="normal" in2="BackgroundImageFix" result="effect1_dropShadow_229_1963"/>
<feBlend mode="normal" in="SourceGraphic" in2="effect1_dropShadow_229_1963" result="shape"/>
<feColorMatrix in="SourceAlpha" type="matrix" values="0 0 0 0 0 0 0 0 0 0 0 0 0 0 0 0 0 0 127 0" result="hardAlpha"/>
<feMorphology radius="2" operator="erode" in="SourceAlpha" result="effect2_innerShadow_229_1963"/>
<feOffset dy="1"/>
<feGaussianBlur stdDeviation="0.5"/>
<feComposite in2="hardAlpha" operator="arithmetic" k2="-1" k3="1"/>
<feColorMatrix type="matrix" values="0 0 0 0 0.984314 0 0 0 0 0.984314 0 0 0 0 0.984314 0 0 0 1 0"/>
<feBlend mode="normal" in2="shape" result="effect2_innerShadow_229_1963"/>
</filter>
<filter id="filter21_di_229_1963" x="272.865" y="465.112" width="97.1995" height="63.1835" filterUnits="userSpaceOnUse" color-interpolation-filters="sRGB">
<feFlood flood-opacity="0" result="BackgroundImageFix"/>
<feColorMatrix in="SourceAlpha" type="matrix" values="0 0 0 0 0 0 0 0 0 0 0 0 0 0 0 0 0 0 127 0" result="hardAlpha"/>
<feOffset dy="1"/>
<feComposite in2="hardAlpha" operator="out"/>
<feColorMatrix type="matrix" values="0 0 0 0 0.843137 0 0 0 0 0.843137 0 0 0 0 0.843137 0 0 0 1 0"/>
<feBlend mode="normal" in2="BackgroundImageFix" result="effect1_dropShadow_229_1963"/>
<feBlend mode="normal" in="SourceGraphic" in2="effect1_dropShadow_229_1963" result="shape"/>
<feColorMatrix in="SourceAlpha" type="matrix" values="0 0 0 0 0 0 0 0 0 0 0 0 0 0 0 0 0 0 127 0" result="hardAlpha"/>
<feMorphology radius="2" operator="erode" in="SourceAlpha" result="effect2_innerShadow_229_1963"/>
<feOffset dy="1"/>
<feGaussianBlur stdDeviation="0.5"/>
<feComposite in2="hardAlpha" operator="arithmetic" k2="-1" k3="1"/>
<feColorMatrix type="matrix" values="0 0 0 0 0.984314 0 0 0 0 0.984314 0 0 0 0 0.984314 0 0 0 1 0"/>
<feBlend mode="normal" in2="shape" result="effect2_innerShadow_229_1963"/>
</filter>
<filter id="filter22_di_229_1963" x="386.667" y="465.112" width="97.1995" height="63.1835" filterUnits="userSpaceOnUse" color-interpolation-filters="sRGB">
<feFlood flood-opacity="0" result="BackgroundImageFix"/>
<feColorMatrix in="SourceAlpha" type="matrix" values="0 0 0 0 0 0 0 0 0 0 0 0 0 0 0 0 0 0 127 0" result="hardAlpha"/>
<feOffset dy="1"/>
<feComposite in2="hardAlpha" operator="out"/>
<feColorMatrix type="matrix" values="0 0 0 0 0.843137 0 0 0 0 0.843137 0 0 0 0 0.843137 0 0 0 1 0"/>
<feBlend mode="normal" in2="BackgroundImageFix" result="effect1_dropShadow_229_1963"/>
<feBlend mode="normal" in="SourceGraphic" in2="effect1_dropShadow_229_1963" result="shape"/>
<feColorMatrix in="SourceAlpha" type="matrix" values="0 0 0 0 0 0 0 0 0 0 0 0 0 0 0 0 0 0 127 0" result="hardAlpha"/>
<feMorphology radius="2" operator="erode" in="SourceAlpha" result="effect2_innerShadow_229_1963"/>
<feOffset dy="1"/>
<feGaussianBlur stdDeviation="0.5"/>
<feComposite in2="hardAlpha" operator="arithmetic" k2="-1" k3="1"/>
<feColorMatrix type="matrix" values="0 0 0 0 0.984314 0 0 0 0 0.984314 0 0 0 0 0.984314 0 0 0 1 0"/>
<feBlend mode="normal" in2="shape" result="effect2_innerShadow_229_1963"/>
</filter>
<linearGradient id="paint0_linear_229_1963" x1="265.111" y1="12" x2="265.111" y2="563.5" gradientUnits="userSpaceOnUse">
<stop stop-color="#EBEBEB"/>
<stop offset="0.505208" stop-color="#FEFEFE"/>
</linearGradient>
<linearGradient id="paint1_linear_229_1963" x1="265.111" y1="39.3561" x2="265.111" y2="134.556" gradientUnits="userSpaceOnUse">
<stop stop-color="#464646"/>
<stop offset="0.494792" stop-color="#4D4F4E"/>
<stop offset="1" stop-color="#565656"/>
</linearGradient>
<linearGradient id="paint2_linear_229_1963" x1="265.111" y1="48.1101" x2="265.111" y2="123.613" gradientUnits="userSpaceOnUse">
<stop stop-color="#514F50"/>
<stop offset="1" stop-color="#32312F"/>
</linearGradient>
<radialGradient id="paint3_radial_229_1963" cx="0" cy="0" r="1" gradientUnits="userSpaceOnUse" gradientTransform="translate(94.9561 159.723) rotate(90) scale(47.6453 75.3662)">
<stop stop-color="#FBFBFB"/>
<stop offset="1" stop-color="#E9E8E9"/>
</radialGradient>
<radialGradient id="paint4_radial_229_1963" cx="0" cy="0" r="1" gradientUnits="userSpaceOnUse" gradientTransform="translate(208.757 159.723) rotate(90) scale(47.6453 75.3662)">
<stop stop-color="#FBFBFB"/>
<stop offset="1" stop-color="#E9E8E9"/>
</radialGradient>
<radialGradient id="paint5_radial_229_1963" cx="0" cy="0" r="1" gradientUnits="userSpaceOnUse" gradientTransform="translate(321.465 159.723) rotate(90) scale(47.6453 75.3662)">
<stop stop-color="#FBFBFB"/>
<stop offset="1" stop-color="#E9E8E9"/>
</radialGradient>
<radialGradient id="paint6_radial_229_1963" cx="0" cy="0" r="1" gradientUnits="userSpaceOnUse" gradientTransform="translate(435.266 159.723) rotate(90) scale(47.6453 75.3662)">
<stop stop-color="#FBFBFB"/>
<stop offset="1" stop-color="#E9E8E9"/>
</radialGradient>
<radialGradient id="paint7_radial_229_1963" cx="0" cy="0" r="1" gradientUnits="userSpaceOnUse" gradientTransform="translate(94.9561 236.32) rotate(90) scale(47.6453 75.3662)">
<stop stop-color="#FBFBFB"/>
<stop offset="1" stop-color="#E9E8E9"/>
</radialGradient>
<radialGradient id="paint8_radial_229_1963" cx="0" cy="0" r="1" gradientUnits="userSpaceOnUse" gradientTransform="translate(208.757 236.32) rotate(90) scale(47.6453 75.3662)">
<stop stop-color="#FBFBFB"/>
<stop offset="1" stop-color="#E9E8E9"/>
</radialGradient>
<radialGradient id="paint9_radial_229_1963" cx="0" cy="0" r="1" gradientUnits="userSpaceOnUse" gradientTransform="translate(321.465 236.32) rotate(90) scale(47.6453 75.3662)">
<stop stop-color="#FBFBFB"/>
<stop offset="1" stop-color="#E9E8E9"/>
</radialGradient>
<radialGradient id="paint10_radial_229_1963" cx="0" cy="0" r="1" gradientUnits="userSpaceOnUse" gradientTransform="translate(435.266 236.32) rotate(90) scale(47.6453 75.3662)">
<stop stop-color="#FBFBFB"/>
<stop offset="1" stop-color="#E9E8E9"/>
</radialGradient>
<radialGradient id="paint11_radial_229_1963" cx="0" cy="0" r="1" gradientUnits="userSpaceOnUse" gradientTransform="translate(94.9561 312.918) rotate(90) scale(47.6453 75.3662)">
<stop stop-color="#FBFBFB"/>
<stop offset="1" stop-color="#E9E8E9"/>
</radialGradient>
<radialGradient id="paint12_radial_229_1963" cx="0" cy="0" r="1" gradientUnits="userSpaceOnUse" gradientTransform="translate(208.757 312.918) rotate(90) scale(47.6453 75.3662)">
<stop stop-color="#FBFBFB"/>
<stop offset="1" stop-color="#E9E8E9"/>
</radialGradient>
<radialGradient id="paint13_radial_229_1963" cx="0" cy="0" r="1" gradientUnits="userSpaceOnUse" gradientTransform="translate(321.465 312.918) rotate(90) scale(47.6453 75.3662)">
<stop stop-color="#FBFBFB"/>
<stop offset="1" stop-color="#E9E8E9"/>
</radialGradient>
<radialGradient id="paint14_radial_229_1963" cx="0" cy="0" r="1" gradientUnits="userSpaceOnUse" gradientTransform="translate(435.266 312.918) rotate(90) scale(47.6453 75.3662)">
<stop stop-color="#FBFBFB"/>
<stop offset="1" stop-color="#E9E8E9"/>
</radialGradient>
<radialGradient id="paint15_radial_229_1963" cx="0" cy="0" r="1" gradientUnits="userSpaceOnUse" gradientTransform="translate(94.9561 389.515) rotate(90) scale(47.6453 75.3662)">
<stop stop-color="#FBFBFB"/>
<stop offset="1" stop-color="#E9E8E9"/>
</radialGradient>
<radialGradient id="paint16_radial_229_1963" cx="0" cy="0" r="1" gradientUnits="userSpaceOnUse" gradientTransform="translate(208.757 389.515) rotate(90) scale(47.6453 75.3662)">
<stop stop-color="#FBFBFB"/>
<stop offset="1" stop-color="#E9E8E9"/>
</radialGradient>
<radialGradient id="paint17_radial_229_1963" cx="0" cy="0" r="1" gradientUnits="userSpaceOnUse" gradientTransform="translate(321.465 389.515) rotate(90) scale(47.6453 75.3662)">
<stop stop-color="#FBFBFB"/>
<stop offset="1" stop-color="#E9E8E9"/>
</radialGradient>
<radialGradient id="paint18_radial_229_1963" cx="0" cy="0" r="1" gradientUnits="userSpaceOnUse" gradientTransform="translate(435.266 389.515) rotate(90) scale(47.6453 75.3662)">
<stop stop-color="#FBFBFB"/>
<stop offset="1" stop-color="#E9E8E9"/>
</radialGradient>
<radialGradient id="paint19_radial_229_1963" cx="0" cy="0" r="1" gradientUnits="userSpaceOnUse" gradientTransform="translate(94.9561 466.112) rotate(90) scale(47.6453 75.3662)">
<stop stop-color="#FBFBFB"/>
<stop offset="1" stop-color="#E9E8E9"/>
</radialGradient>
<radialGradient id="paint20_radial_229_1963" cx="0" cy="0" r="1" gradientUnits="userSpaceOnUse" gradientTransform="translate(208.757 466.112) rotate(90) scale(47.6453 75.3662)">
<stop stop-color="#FBFBFB"/>
<stop offset="1" stop-color="#E9E8E9"/>
</radialGradient>
<radialGradient id="paint21_radial_229_1963" cx="0" cy="0" r="1" gradientUnits="userSpaceOnUse" gradientTransform="translate(321.465 466.112) rotate(90) scale(47.6453 75.3662)">
<stop stop-color="#FBFBFB"/>
<stop offset="1" stop-color="#E9E8E9"/>
</radialGradient>
<radialGradient id="paint22_radial_229_1963" cx="0" cy="0" r="1" gradientUnits="userSpaceOnUse" gradientTransform="translate(435.266 466.112) rotate(90) scale(47.6453 75.3662)">
<stop stop-color="#FBFBFB"/>
<stop offset="1" stop-color="#E9E8E9"/>
</radialGradient>
</defs>
</svg>
