<svg width="24" height="24" viewBox="0 0 24 24" fill="none" xmlns="http://www.w3.org/2000/svg">
<g id="icon/call">
<g id="Layer 2">
<path id="Vector" d="M8.40595 10.6158C8.93917 11.6165 9.59737 12.5449 10.3646 13.3784C11.2623 14.321 12.3149 15.1014 13.4764 15.6854C13.5188 15.7044 13.5648 15.7142 13.6113 15.7142C13.6578 15.7142 13.7038 15.7044 13.7463 15.6854C13.8888 15.6219 14.0169 15.5297 14.1224 15.4144C14.2435 15.2844 14.3568 15.1473 14.4618 15.004C14.9648 14.3431 15.5822 13.5262 16.4573 13.9367L16.5105 13.9613L19.426 15.6443H19.4505C19.6294 15.7735 19.7733 15.9456 19.869 16.145C19.9647 16.3443 20.0092 16.5645 19.9984 16.7855C19.9839 17.295 19.8434 17.793 19.5895 18.2345C19.2667 18.7862 18.7746 19.2182 18.187 19.466C17.6359 19.7055 17.0534 19.8645 16.4573 19.938C15.5718 20.0677 14.6684 19.9933 13.8158 19.7205C12.8809 19.404 11.9893 18.971 11.162 18.4315L11.0925 18.3864C10.659 18.1155 10.1929 17.8281 9.7349 17.4874C7.90808 16.102 6.37828 14.361 5.23694 12.3686C4.30872 10.6774 3.79759 8.85072 4.07565 7.10614C4.19078 6.17726 4.64543 5.32442 5.35143 4.71298C5.70757 4.43573 6.11525 4.23265 6.55059 4.11564C6.98593 3.99863 7.44016 3.97005 7.88665 4.03157C7.94737 4.03645 8.00597 4.05622 8.0573 4.08914C8.10863 4.12206 8.15113 4.16713 8.18106 4.2204L10.0498 7.39348C10.1749 7.53682 10.2562 7.71342 10.2838 7.90204C10.3113 8.09065 10.284 8.28324 10.2051 8.45665C10.0447 8.7901 9.79749 9.07378 9.48955 9.27762C9.39142 9.36383 9.27283 9.45003 9.14607 9.54034C8.73717 9.8441 8.25057 10.1971 8.41413 10.6117L8.40595 10.6158Z" fill="#3EA433"/>
</g>
</g>
</svg>
