<svg width="88" height="88" viewBox="0 0 88 88" fill="none" xmlns="http://www.w3.org/2000/svg">
<g id="illu/002">
<g id="Group 34">
<path id="Vector" d="M15.0476 40.7354V65.0001H48.8M72.9524 40.7354V65.0001H66.9333" stroke="#333333" stroke-width="1.5"/>
<g id="Vector_2">
<path d="M72.9524 70V66C72.9524 65.4477 72.5046 65 71.9524 65H66.9333V71H71.9524C72.5046 71 72.9524 70.5523 72.9524 70Z" stroke="#333333" stroke-width="1.5"/>
<path d="M15.0476 66V70C15.0476 70.5523 15.4953 71 16.0476 71H48.2667V65H16.0476C15.4953 65 15.0476 65.4477 15.0476 66Z" stroke="#333333" stroke-width="1.5"/>
</g>
<path id="Vector_3" d="M65.857 44H49.5713C49.019 44 48.5713 44.4477 48.5713 45V71H66.857V45C66.857 44.4477 66.4093 44 65.857 44Z" stroke="#333333" stroke-width="1.5"/>
<path id="Vector_4" d="M42.4762 44H21.1428V60.5H42.4762V44Z" stroke="#929292" stroke-width="1.5"/>
<path id="Vector_5" d="M68.381 17H19.6192C17.943 17 16.5715 18.35 16.5715 20V23.5C16.5715 24.0523 17.0192 24.5 17.5715 24.5H70.4287C70.981 24.5 71.4287 24.0523 71.4287 23.5V20C71.4287 18.35 70.0572 17 68.381 17Z" stroke="#3EA433" stroke-width="1.5"/>
<path id="Union" d="M21.1428 36.5253L21.8928 36.5291L21.1428 36.5253ZM21.1429 36.5253L21.8929 36.5211L21.1429 36.5253ZM30.2854 36.5507L31.0354 36.5591L30.2854 36.5507ZM30.286 36.5507L29.536 36.5591L30.286 36.5507ZM39.4279 36.5763L40.1778 36.5889L39.4279 36.5763ZM57.714 36.5507L56.964 36.5423L57.714 36.5507ZM57.7146 36.5507L56.9646 36.5591L57.7146 36.5507ZM66.8571 36.5253L67.6071 36.5295L66.8571 36.5253ZM39.4292 36.5763L38.6793 36.5889L39.4292 36.5763ZM75.9345 36.328L76.6354 36.061L75.9345 36.328ZM75.9965 36.6843L75.2471 36.656L75.9965 36.6843ZM48.5708 36.5763L49.3207 36.5889L48.5708 36.5763ZM12 36.5L11.4731 35.9663L12 36.5ZM12 36.5L12.7009 36.767L12 36.5ZM66.8572 36.5253L67.6072 36.5214L66.8572 36.5253ZM48.5721 36.5763L49.3219 36.5636L48.5721 36.5763ZM12 36.5L12.5269 37.0338L12 36.5ZM16.3261 25.144L15.6252 24.877L16.3261 25.144ZM15.6252 24.877L11.2991 36.233L12.7009 36.767L17.027 25.411L15.6252 24.877ZM70.7394 23.75H17.2606V25.25H70.7394V23.75ZM76.6354 36.061L72.3748 24.877L70.973 25.411L75.2336 36.595L76.6354 36.061ZM75.2471 36.656C75.1698 38.7009 73.5644 40.25 71.4286 40.25V41.75C74.3481 41.75 76.6375 39.5859 76.746 36.7126L75.2471 36.656ZM71.4286 40.25C69.2481 40.25 67.618 38.6352 67.6072 36.5214L66.1072 36.5291C66.1224 39.4906 68.4451 41.75 71.4286 41.75V40.25ZM66.1071 36.5211C66.0956 38.5714 64.4002 40.25 62.2857 40.25V41.75C65.2036 41.75 67.5909 39.4265 67.6071 36.5295L66.1071 36.5211ZM62.2857 40.25C60.1786 40.25 58.4874 38.5829 58.4645 36.5423L56.9646 36.5591C56.9969 39.4424 59.3778 41.75 62.2857 41.75V40.25ZM56.964 36.5423C56.9412 38.5829 55.25 40.25 53.1428 40.25V41.75C56.0508 41.75 58.4316 39.4424 58.4639 36.5591L56.964 36.5423ZM53.1428 40.25C51.043 40.25 49.3562 38.5944 49.3219 36.5636L47.8222 36.5889C47.8706 39.4584 50.2449 41.75 53.1428 41.75V40.25ZM47.8209 36.5636C47.7866 38.5944 46.0998 40.25 44 40.25V41.75C46.8979 41.75 49.2722 39.4584 49.3207 36.5889L47.8209 36.5636ZM44 40.25C41.9002 40.25 40.2134 38.5944 40.1791 36.5636L38.6793 36.5889C38.7277 39.4584 41.1021 41.75 44 41.75V40.25ZM38.678 36.5636C38.6438 38.5944 36.9569 40.25 34.8571 40.25V41.75C37.7551 41.75 40.1294 39.4584 40.1778 36.5889L38.678 36.5636ZM34.8571 40.25C32.75 40.25 31.0588 38.5829 31.0359 36.5423L29.536 36.5591C29.5684 39.4424 31.9492 41.75 34.8571 41.75V40.25ZM29.5355 36.5423C29.5126 38.5829 27.8214 40.25 25.7143 40.25V41.75C28.6222 41.75 31.0031 39.4424 31.0354 36.5591L29.5355 36.5423ZM25.7143 40.25C23.5998 40.25 21.9043 38.5714 21.8929 36.5211L20.3929 36.5295C20.4091 39.4265 22.7964 41.75 25.7143 41.75V40.25ZM20.3928 36.5214C20.382 38.6352 18.7518 40.25 16.5714 40.25V41.75C19.5548 41.75 21.8776 39.4906 21.8928 36.5291L20.3928 36.5214ZM16.5714 40.25C14.384 40.25 12.75 38.6247 12.75 36.5L11.25 36.5C11.25 39.4753 13.5779 41.75 16.5714 41.75V40.25ZM12.5269 37.0338L12.5269 37.0338L11.4731 35.9663L11.4731 35.9663L12.5269 37.0338ZM21.1429 35.7752C20.7232 35.7752 20.3949 36.1157 20.3928 36.5214L21.8928 36.5291C21.8907 36.9348 21.5625 37.2752 21.1429 37.2752V35.7752ZM21.8929 36.5211C21.8906 36.1156 21.5626 35.7752 21.1429 35.7752V37.2752C20.7232 37.2752 20.3952 36.9348 20.3929 36.5295L21.8929 36.5211ZM30.287 35.8004C29.87 35.7997 29.54 36.1362 29.5355 36.5423L31.0354 36.5591C31.0308 36.9649 30.7011 37.3011 30.2844 37.3004L30.287 35.8004ZM31.0359 36.5423C31.0314 36.1367 30.7025 35.8011 30.287 35.8004L30.2844 37.3004C29.8692 37.2997 29.5406 36.9644 29.536 36.5591L31.0359 36.5423ZM39.4308 35.8257C39.015 35.8244 38.6849 36.1585 38.678 36.5636L40.1778 36.5889C40.171 36.9933 39.8415 37.3269 39.4263 37.3256L39.4308 35.8257ZM57.713 35.8004C57.297 35.8011 56.9686 36.1372 56.964 36.5423L58.4639 36.5591C58.4594 36.9639 58.1312 37.2997 57.7155 37.3004L57.713 35.8004ZM58.4645 36.5423C58.46 36.1364 58.1302 35.7997 57.713 35.8004L57.7155 37.3004C57.2986 37.3011 56.9691 36.9647 56.9646 36.5591L58.4645 36.5423ZM66.8571 35.7752C66.439 35.7752 66.1093 36.114 66.1071 36.5211L67.6071 36.5295C67.6048 36.9364 67.2752 37.2752 66.8571 37.2752V35.7752ZM40.1791 36.5636C40.1723 36.16 39.8446 35.8269 39.4308 35.8257L39.4263 37.3256C39.0133 37.3244 38.6861 36.9919 38.6793 36.5889L40.1791 36.5636ZM75.2336 36.595C75.2463 36.6282 75.2473 36.6488 75.2471 36.656L76.746 36.7126C76.7549 36.4766 76.7093 36.2552 76.6354 36.061L75.2336 36.595ZM70.7394 25.25C70.8432 25.25 70.9361 25.3141 70.973 25.411L72.3748 24.877C72.1163 24.1984 71.4656 23.75 70.7394 23.75V25.25ZM48.5691 35.8257C48.1551 35.8269 47.8277 36.1603 47.8209 36.5636L49.3207 36.5889C49.3139 36.9916 48.987 37.3244 48.5737 37.3256L48.5691 35.8257ZM12.5269 37.0338C13.0041 36.5627 12.6706 35.75 12 35.75V37.25C11.3295 37.25 10.996 36.4373 11.4731 35.9663L12.5269 37.0338ZM11.2991 36.233C11.0948 36.7694 11.5244 37.25 12 37.25V35.75C12.4756 35.75 12.9052 36.2305 12.7009 36.767L11.2991 36.233ZM67.6072 36.5214C67.6051 36.1143 67.2755 35.7752 66.8571 35.7752V37.2752C66.4389 37.2752 66.1093 36.9362 66.1072 36.5291L67.6072 36.5214ZM49.3219 36.5636C49.3151 36.1583 48.9847 35.8244 48.5691 35.8257L48.5737 37.3256C48.1588 37.3269 47.829 36.9936 47.8222 36.5889L49.3219 36.5636ZM12.75 36.5C12.75 36.6971 12.6722 36.8904 12.5269 37.0338L11.4731 35.9663C11.3278 36.1097 11.25 36.303 11.25 36.5L12.75 36.5ZM17.027 25.411C17.0639 25.3141 17.1569 25.25 17.2606 25.25V23.75C16.5344 23.75 15.8837 24.1984 15.6252 24.877L17.027 25.411Z" fill="#3EA433"/>
<path id="Vector 255" d="M63.2 58.2941V55.1177" stroke="#333333" stroke-width="1.5"/>
<g id="Group 25">
<path id="Vector 256" d="M38.4285 49.8235L31.2001 56.9987" stroke="#929292" stroke-width="1.5"/>
<path id="Vector 257" d="M39.332 52.5142L33.9108 57.8956" stroke="#929292" stroke-width="1.5"/>
</g>
</g>
</g>
</svg>
