<svg width="88" height="88" viewBox="0 0 88 88" fill="none" xmlns="http://www.w3.org/2000/svg">
<g id="illu/003">
<g id="Group 27">
<g id="XMLID_7837_">
<path id="XMLID_7851_" d="M44.4057 63.3631C44.5162 62.946 44.7335 62.1725 45.0363 61.309C44.7367 62.1255 44.533 62.8389 44.4031 63.3537C44.404 63.3571 44.4047 63.3599 44.4057 63.3631Z" fill="#EAEAEA"/>
<path id="Vector 258" d="M34.5 52.5C35.5 52.5 39 52 39.5 48.5" stroke="#333333" stroke-width="1.5"/>
<path id="Vector 259" d="M54.5 52.5C53.5 52.5 49.5 51.5 49 48" stroke="#333333" stroke-width="1.5"/>
<path id="XMLID_7849_" d="M44.3787 63.4651C44.378 63.4639 44.3771 63.4623 44.3764 63.4612C44.3569 63.5406 44.3392 63.6147 44.3235 63.6828C44.3262 63.6714 44.3443 63.5972 44.3787 63.4651Z" fill="#EAEAEA"/>
<path id="XMLID_7848_" d="M23.8591 56.6609C23.8132 56.4333 23.5968 56.2285 23.3724 56.2884V56.2884C21.8812 56.6863 21.0038 60.4533 19.9867 64.4826C19.9064 64.8008 19.9857 65.1392 20.2051 65.3833C21.9936 67.3724 24.0261 69.1361 26.2577 70.6265C26.9022 71.057 27.7436 70.5797 27.6983 69.8059C27.6653 69.2432 27.6118 68.725 27.5293 68.2687C27.06 65.6767 24.2642 58.6682 23.8591 56.6609Z" stroke="#333333" stroke-width="1.5"/>
<path id="XMLID_7847_" d="M65.1471 56.2882V56.2882C64.9037 56.2233 64.6792 56.422 64.6248 56.6679C64.1549 58.7931 61.4367 65.6286 60.9745 68.181C60.9049 68.5654 60.8561 68.9941 60.8228 69.4564C60.7663 70.2398 61.6251 70.7193 62.2696 70.2702C64.4744 68.734 66.4763 66.9275 68.2281 64.8984C68.4345 64.6593 68.5101 64.3344 68.4364 64.0272C67.5091 60.1611 66.5827 56.6713 65.1471 56.2882Z" stroke="#333333" stroke-width="1.5"/>
<path id="XMLID_7846_" d="M64.6435 56.0284C64.6824 56.0458 64.6967 56.1142 64.6938 56.2183C64.6574 57.5408 61.4779 65.4012 60.9746 68.1811C60.8456 68.8933 60.7879 69.7577 60.7682 70.7056C60.761 71.0502 60.5831 71.3706 60.2865 71.5463C55.8965 74.1474 50.8315 75.7252 45.417 75.961C44.8746 75.9846 44.4264 75.5555 44.3974 75.0135C44.3635 74.3813 44.3238 73.8913 44.2773 73.5791C44.2579 73.4491 44.2464 73.3147 44.2867 73.1895C44.301 73.1448 44.316 73.115 44.3316 73.101C46.8073 70.8737 49.5658 64.7566 51.6415 59.3622L52.7839 56.2866C53.3261 54.7751 53.7874 53.4149 54.1372 52.3441L54.1393 52.3378C54.3389 51.7266 64.1097 55.7903 64.6435 56.0284Z" stroke="#3EA433" stroke-width="1.5"/>
<path id="XMLID_7839_" d="M44.2418 73.3818L44.2422 73.3835C44.3174 73.7211 44.3767 74.4832 44.4232 75.5476C44.4338 75.7893 44.2419 75.9999 44 75.9999C38.2674 75.9999 32.8904 74.487 28.2369 71.8465C27.9299 71.6723 27.7449 71.3447 27.7396 70.9917C27.7241 69.9654 27.6673 69.0306 27.5294 68.2686C27.0132 65.4175 23.682 57.2227 23.8141 56.2182C23.8209 56.1663 23.8343 56.1278 23.8605 56.1162C24.3928 55.8785 34.1136 51.8356 34.3614 52.4216C34.3618 52.4227 34.3624 52.4235 34.3632 52.4242C34.3641 52.4251 34.3648 52.4261 34.3651 52.4273C34.773 53.6763 35.3325 55.3188 35.9965 57.1387L36.8991 59.5457C38.9706 64.9165 41.7113 70.9746 44.1723 73.1887C44.1867 73.2016 44.2004 73.2324 44.2139 73.2714C44.2235 73.2995 44.2327 73.3407 44.2418 73.3818Z" stroke="#3EA433" stroke-width="1.5"/>
<path id="XMLID_7845_" d="M53.2993 33.5C53.7185 33.5255 52.8779 38.6299 53.2993 37.9212C53.5843 37.442 53.8845 37.0602 54.226 36.9244C54.4341 36.8417 54.668 36.9523 54.7585 37.1571C55.3143 38.4158 53.8658 41.6046 52.578 41.3697C51.1519 41.1096 52.3353 45.2712 49.9863 47.2653C49.9597 47.2879 49.9357 47.308 49.9095 47.3303C47.7332 49.1775 46.9589 49.8025 44.2837 49.7106C41.6866 49.7999 40.8798 49.2122 38.8436 47.4877C38.7572 47.4146 38.6722 47.3427 38.5811 47.2653C36.2321 45.2712 37.4155 41.1096 35.9894 41.3697C34.5689 41.6287 32.9464 37.7158 34.0404 36.8286C34.0493 36.8214 34.0584 36.8145 34.069 36.8104C34.1313 36.7863 34.3873 36.7504 34.8629 37.4684C35.563 38.5251 34.6533 33.5512 34.8629 33.5" stroke="#333333" stroke-width="1.5"/>
<g id="Group 28">
<path id="XMLID_7842_" d="M46.1925 32.6955C46.1216 33.2899 46.6225 33.7796 47.2191 33.7316C48.7308 33.6102 50.5137 33.432 51.5768 33.2059C54.2438 32.6386 55.5866 32.2307 56.2588 32.1312C56.2759 32.1287 56.3115 32.1161 56.3274 32.1094V32.1094C56.401 32.0784 56.4284 32.0162 56.4279 31.9363C56.4094 28.8561 55.717 23.608 51.6485 20.7639C51.205 20.4539 50.607 20.6153 50.3464 21.0894C49.2632 23.0597 46.7476 28.0388 46.1925 32.6955Z" stroke="#3EA433" stroke-width="1.5"/>
<path id="XMLID_7841_" d="M37.4018 33.2059C38.4649 33.432 40.2479 33.6103 41.7596 33.7317C42.3563 33.7796 42.8571 33.2899 42.7862 32.6955C42.231 28.0389 39.7154 23.06 38.6323 21.0895C38.3716 20.6153 37.7735 20.454 37.33 20.764C33.2615 23.6081 32.5692 28.8561 32.5507 31.9363C32.5502 32.0162 32.5776 32.0784 32.6511 32.1094V32.1094C32.6671 32.1162 32.7027 32.1287 32.7198 32.1312C33.392 32.2307 34.7347 32.6386 37.4018 33.2059Z" stroke="#3EA433" stroke-width="1.5"/>
<path id="XMLID_7840_" d="M37.2937 34.8112C39.5346 35.3556 42.1651 35.7678 44.4894 35.7678C47.063 35.7678 49.9298 35.2889 52.2611 34.6815C53.6152 34.3286 54.7857 33.9327 55.6151 33.5615C56.4275 33.1979 56.9136 32.8582 56.9136 32.6073C56.9136 32.1841 56.819 32.0527 56.2841 32.1275C55.6206 32.2204 54.2777 32.6314 51.5768 33.2059C50.5138 33.432 48.7308 33.6102 47.2192 33.7316C46.6225 33.7796 46.1217 33.2898 46.1925 32.6955C46.8751 26.9698 50.5216 20.7569 50.8248 20.2484V20.2484C50.8379 20.2264 50.8347 20.1986 50.8166 20.1806C49.4027 18.7788 46.6633 17.9466 44.2838 17.9682C42.023 17.9886 39.4614 18.8899 38.1622 20.1805C38.144 20.1986 38.1409 20.2264 38.154 20.2484V20.2484C38.4572 20.7569 42.1037 26.9698 42.7864 32.6955C42.8573 33.2899 42.3564 33.7796 41.7598 33.7317C40.2481 33.6102 38.465 33.432 37.4019 33.2059C34.701 32.6314 33.3582 32.2204 32.6947 32.1275C32.1598 32.0527 32.0652 32.1841 32.0652 32.6073C32.0652 32.8521 32.5369 33.1814 33.3255 33.5348C34.2735 33.9598 35.6818 34.4196 37.2937 34.8112Z" stroke="#3EA433" stroke-width="1.5"/>
</g>
</g>
<path id="XMLID_8233_" d="M44 76C61.6731 76 76 61.6731 76 44C76 26.3269 61.6731 12 44 12C26.3269 12 12 26.3269 12 44C12 61.6731 26.3269 76 44 76Z" stroke="#929292" stroke-width="1.5"/>
</g>
</g>
</svg>
