<svg width="160" height="52" viewBox="0 0 160 52" fill="none" xmlns="http://www.w3.org/2000/svg">
<mask id="mask0_165_5481" style="mask-type:alpha" maskUnits="userSpaceOnUse" x="0" y="0" width="160" height="52">
<rect width="160" height="52" fill="#D9D9D9"/>
</mask>
<g mask="url(#mask0_165_5481)">
<path d="M58.5078 26.0197C58.5078 25.257 58.6369 24.5119 58.895 23.7845C59.1649 23.0453 59.5521 22.3765 60.0566 21.7781C60.5729 21.1679 61.2006 20.6869 61.9398 20.3349C62.679 19.9711 63.5179 19.7893 64.4566 19.7893C65.5713 19.7893 66.5275 20.0474 67.3254 20.5637C68.1233 21.0682 68.7158 21.7194 69.103 22.5173L67.8534 23.3269C67.607 22.7989 67.2902 22.3823 66.903 22.0773C66.5275 21.7605 66.1169 21.5375 65.671 21.4085C65.2369 21.2794 64.8086 21.2149 64.3862 21.2149C63.6939 21.2149 63.0779 21.3557 62.5382 21.6373C62.0102 21.9189 61.5643 22.2943 61.2006 22.7637C60.8369 23.233 60.5611 23.761 60.3734 24.3477C60.1974 24.9226 60.1094 25.5034 60.1094 26.0901C60.1094 26.7354 60.215 27.3573 60.4262 27.9557C60.6491 28.5541 60.9542 29.0821 61.3414 29.5397C61.7286 29.9973 62.1862 30.361 62.7142 30.6309C63.2422 30.9007 63.8171 31.0357 64.439 31.0357C64.8731 31.0357 65.319 30.9594 65.7766 30.8069C66.2342 30.6543 66.6625 30.4197 67.0614 30.1029C67.4603 29.7743 67.7771 29.3519 68.0118 28.8357L69.3318 29.5573C69.0737 30.1791 68.6747 30.7071 68.135 31.1413C67.5953 31.5754 66.991 31.9039 66.3222 32.1269C65.6651 32.3498 65.0139 32.4613 64.3686 32.4613C63.5121 32.4613 62.7259 32.2794 62.0102 31.9157C61.2945 31.5402 60.6726 31.0474 60.1446 30.4373C59.6283 29.8154 59.2235 29.1231 58.9302 28.3605C58.6486 27.5861 58.5078 26.8058 58.5078 26.0197Z" fill="white"/>
<path d="M71.0503 32.3557V23.1861H72.5991V30.2789L77.7383 23.1685H79.1463V32.3557H77.5975V25.4037L72.5287 32.3557H71.0503Z" fill="white"/>
<path d="M85.9506 32.5317C84.437 32.5317 83.293 32.0741 82.5186 31.1589C81.7442 30.2437 81.357 28.953 81.357 27.2869C81.357 26.1487 81.4509 25.1925 81.6386 24.4181C81.8263 23.6319 82.1079 22.9866 82.4834 22.4821C82.8589 21.9658 83.3223 21.5493 83.8738 21.2325C84.4253 20.9039 85.0589 20.6341 85.7746 20.4229L89.6642 19.2437L89.7522 20.5813L85.9682 21.7253C85.3229 21.9365 84.7831 22.2063 84.349 22.5349C83.9149 22.8634 83.5746 23.2858 83.3282 23.8021C83.0818 24.3183 82.9175 24.9813 82.8354 25.7909C83.1405 25.169 83.5981 24.6879 84.2082 24.3477C84.8183 23.9957 85.5282 23.8197 86.3378 23.8197C87.2061 23.8197 87.9511 24.0015 88.573 24.3653C89.2066 24.7173 89.6877 25.2159 90.0162 25.8613C90.3565 26.4949 90.5266 27.2282 90.5266 28.0613C90.5266 28.953 90.3506 29.7333 89.9986 30.4021C89.6466 31.0709 89.1303 31.593 88.4498 31.9685C87.7693 32.3439 86.9362 32.5317 85.9506 32.5317ZM85.9506 31.1941C86.901 31.1941 87.6343 30.9183 88.1506 30.3669C88.6786 29.8037 88.9426 29.0586 88.9426 28.1317C88.9426 27.2282 88.6845 26.4949 88.1682 25.9317C87.6519 25.3685 86.9127 25.0869 85.9506 25.0869C85.3874 25.0869 84.877 25.2042 84.4194 25.4389C83.9735 25.6735 83.6157 26.0197 83.3458 26.4773C83.0877 26.9231 82.9586 27.4746 82.9586 28.1317C82.9586 28.7183 83.0701 29.2463 83.293 29.7157C83.5277 30.1733 83.8679 30.537 84.3138 30.8069C84.7597 31.065 85.3053 31.1941 85.9506 31.1941Z" fill="white"/>
<path d="M91.8516 26.0197C91.8516 25.257 91.9806 24.5119 92.2388 23.7845C92.5086 23.0453 92.8958 22.3765 93.4004 21.7781C93.9166 21.1679 94.5444 20.6869 95.2836 20.3349C96.0228 19.9711 96.8617 19.7893 97.8004 19.7893C98.915 19.7893 99.8713 20.0474 100.669 20.5637C101.467 21.0682 102.06 21.7194 102.447 22.5173L101.197 23.3269C100.951 22.7989 100.634 22.3823 100.247 22.0773C99.8713 21.7605 99.4606 21.5375 99.0148 21.4085C98.5806 21.2794 98.1524 21.2149 97.73 21.2149C97.0377 21.2149 96.4217 21.3557 95.882 21.6373C95.354 21.9189 94.9081 22.2943 94.5444 22.7637C94.1806 23.233 93.9049 23.761 93.7172 24.3477C93.5412 24.9226 93.4532 25.5034 93.4532 26.0901C93.4532 26.7354 93.5588 27.3573 93.77 27.9557C93.9929 28.5541 94.298 29.0821 94.6852 29.5397C95.0724 29.9973 95.53 30.361 96.058 30.6309C96.586 30.9007 97.1609 31.0357 97.7828 31.0357C98.2169 31.0357 98.6628 30.9594 99.1204 30.8069C99.578 30.6543 100.006 30.4197 100.405 30.1029C100.804 29.7743 101.121 29.3519 101.356 28.8357L102.676 29.5573C102.417 30.1791 102.018 30.7071 101.479 31.1413C100.939 31.5754 100.335 31.9039 99.666 32.1269C99.0089 32.3498 98.3577 32.4613 97.7124 32.4613C96.8558 32.4613 96.0697 32.2794 95.354 31.9157C94.6382 31.5402 94.0164 31.0474 93.4884 30.4373C92.9721 29.8154 92.5673 29.1231 92.274 28.3605C91.9924 27.5861 91.8516 26.8058 91.8516 26.0197Z" fill="white"/>
<path d="M108.477 32.5317C107.785 32.5317 107.151 32.4085 106.576 32.1621C106.013 31.9039 105.52 31.5578 105.098 31.1237C104.687 30.6778 104.365 30.1674 104.13 29.5925C103.907 29.0175 103.796 28.4074 103.796 27.7621C103.796 26.8938 103.995 26.1018 104.394 25.3861C104.793 24.6703 105.344 24.0954 106.048 23.6613C106.764 23.2271 107.58 23.0101 108.495 23.0101C109.422 23.0101 110.226 23.233 110.906 23.6789C111.598 24.113 112.132 24.6879 112.508 25.4037C112.895 26.1077 113.088 26.8703 113.088 27.6917C113.088 27.809 113.083 27.9263 113.071 28.0437C113.071 28.1493 113.065 28.2314 113.053 28.2901H105.432C105.479 28.8885 105.644 29.4223 105.925 29.8917C106.219 30.3493 106.594 30.713 107.052 30.9829C107.509 31.241 108.002 31.3701 108.53 31.3701C109.093 31.3701 109.621 31.2293 110.114 30.9477C110.619 30.6661 110.965 30.2965 111.152 29.8389L112.49 30.2085C112.291 30.6543 111.991 31.0533 111.592 31.4053C111.205 31.7573 110.742 32.033 110.202 32.2325C109.674 32.4319 109.099 32.5317 108.477 32.5317ZM105.38 27.2165H111.645C111.598 26.6181 111.428 26.0901 111.135 25.6325C110.842 25.1749 110.466 24.817 110.008 24.5589C109.551 24.3007 109.046 24.1717 108.495 24.1717C107.955 24.1717 107.456 24.3007 106.999 24.5589C106.541 24.817 106.166 25.1749 105.872 25.6325C105.591 26.0901 105.427 26.6181 105.38 27.2165Z" fill="white"/>
<path d="M119.756 32.5317C119.005 32.5317 118.336 32.3439 117.749 31.9685C117.163 31.593 116.699 31.1178 116.359 30.5429V36.1045H114.81V23.1685H116.183V24.8933C116.547 24.3301 117.022 23.8783 117.608 23.5381C118.195 23.1861 118.835 23.0101 119.527 23.0101C120.16 23.0101 120.741 23.1391 121.269 23.3973C121.797 23.6554 122.255 24.0074 122.642 24.4533C123.029 24.8991 123.328 25.4095 123.54 25.9845C123.763 26.5477 123.874 27.1402 123.874 27.7621C123.874 28.6303 123.698 29.4282 123.346 30.1557C123.006 30.8831 122.525 31.4639 121.903 31.8981C121.281 32.3205 120.565 32.5317 119.756 32.5317ZM119.28 31.1941C119.738 31.1941 120.149 31.1002 120.512 30.9125C120.888 30.713 121.205 30.4549 121.463 30.1381C121.733 29.8095 121.938 29.4399 122.079 29.0293C122.22 28.6186 122.29 28.1962 122.29 27.7621C122.29 27.3045 122.208 26.8703 122.044 26.4597C121.891 26.049 121.668 25.6853 121.375 25.3685C121.093 25.0517 120.759 24.8053 120.372 24.6293C119.996 24.4415 119.586 24.3477 119.14 24.3477C118.858 24.3477 118.565 24.4005 118.26 24.5061C117.966 24.6117 117.685 24.7642 117.415 24.9637C117.145 25.1514 116.916 25.3685 116.728 25.6149C116.541 25.8613 116.418 26.1253 116.359 26.4069V29.0293C116.535 29.4282 116.77 29.7919 117.063 30.1205C117.356 30.449 117.696 30.713 118.084 30.9125C118.471 31.1002 118.87 31.1941 119.28 31.1941Z" fill="white"/>
<path d="M125.758 32.3557V23.1685H130.51C131.062 23.1685 131.519 23.2799 131.883 23.5029C132.247 23.7141 132.516 23.9898 132.692 24.3301C132.88 24.6703 132.974 25.0341 132.974 25.4213C132.974 25.9141 132.857 26.3599 132.622 26.7589C132.387 27.1461 132.047 27.4394 131.601 27.6389C132.129 27.7914 132.558 28.0671 132.886 28.4661C133.215 28.8533 133.379 29.3343 133.379 29.9093C133.379 30.4255 133.256 30.8655 133.009 31.2293C132.763 31.593 132.417 31.8746 131.971 32.0741C131.525 32.2618 131.009 32.3557 130.422 32.3557H125.758ZM127.237 31.2645H130.387C130.669 31.2645 130.921 31.1941 131.144 31.0533C131.378 30.9125 131.56 30.7247 131.689 30.4901C131.818 30.2554 131.883 30.009 131.883 29.7509C131.883 29.4693 131.818 29.217 131.689 28.9941C131.572 28.7594 131.402 28.5775 131.179 28.4485C130.968 28.3077 130.721 28.2373 130.44 28.2373H127.237V31.2645ZM127.237 27.2165H130.105C130.387 27.2165 130.633 27.1461 130.844 27.0053C131.056 26.8527 131.22 26.6591 131.337 26.4245C131.455 26.1898 131.513 25.9434 131.513 25.6853C131.513 25.2981 131.384 24.9637 131.126 24.6821C130.88 24.4005 130.557 24.2597 130.158 24.2597H127.237V27.2165Z" fill="white"/>
<path d="M135.332 32.3557V23.1861H136.88V30.2789L142.02 23.1685H143.428V32.3557H141.879V25.4037L136.81 32.3557H135.332Z" fill="white"/>
<path d="M149.968 32.5317C149.276 32.5317 148.642 32.4085 148.067 32.1621C147.504 31.9039 147.011 31.5519 146.589 31.1061C146.178 30.6602 145.855 30.1498 145.621 29.5749C145.398 28.9999 145.286 28.3898 145.286 27.7445C145.286 26.8762 145.48 26.0842 145.867 25.3685C146.254 24.6527 146.8 24.0837 147.504 23.6613C148.208 23.2271 149.023 23.0101 149.95 23.0101C150.854 23.0101 151.64 23.2154 152.309 23.6261C152.989 24.025 153.494 24.5647 153.822 25.2453L152.309 25.7205C152.074 25.2863 151.745 24.9519 151.323 24.7173C150.901 24.4709 150.431 24.3477 149.915 24.3477C149.352 24.3477 148.836 24.4943 148.366 24.7877C147.909 25.081 147.545 25.4858 147.275 26.0021C147.005 26.5066 146.87 27.0874 146.87 27.7445C146.87 28.3898 147.005 28.9765 147.275 29.5045C147.557 30.0207 147.926 30.4314 148.384 30.7365C148.853 31.0415 149.369 31.1941 149.933 31.1941C150.296 31.1941 150.643 31.1295 150.971 31.0005C151.311 30.8714 151.605 30.7013 151.851 30.4901C152.109 30.2671 152.285 30.0266 152.379 29.7685L153.893 30.2261C153.705 30.6719 153.417 31.0709 153.03 31.4229C152.655 31.7631 152.203 32.033 151.675 32.2325C151.159 32.4319 150.59 32.5317 149.968 32.5317Z" fill="white"/>
<mask id="mask1_165_5481" style="mask-type:alpha" maskUnits="userSpaceOnUse" x="6" y="4" width="46" height="44">
<rect x="6" y="4" width="45.9556" height="44" fill="#D9D9D9"/>
</mask>
<g mask="url(#mask1_165_5481)">
<path d="M35.186 10.0141L20.6667 24.5333L35.186 39.0526L49.7053 24.5333L35.186 10.0141Z" fill="#7EDD03" stroke="white" stroke-miterlimit="10"/>
<path d="M31.2749 16.8585L16.7556 31.3778L31.2749 45.8971L45.7941 31.3778L31.2749 16.8585Z" fill="#46CCFD" stroke="white" stroke-miterlimit="10"/>
<path d="M26.386 6.10293L11.8667 20.6222L26.386 35.1415L40.9052 20.6222L26.386 6.10293Z" fill="#FCDF22" stroke="white" stroke-miterlimit="10"/>
<path d="M22.4748 12.9474L7.95557 27.4667L22.4748 41.9859L36.9941 27.4667L22.4748 12.9474Z" fill="#F61E15" stroke="white" stroke-miterlimit="10"/>
<path fill-rule="evenodd" clip-rule="evenodd" d="M27.0334 27.413V22.5776H26.0334V26.9931L27.0334 27.413ZM24.1001 27.2659V27.6671L23.2864 28.0088L23.1001 28.087V26.846L23.2864 26.9242L24.1001 27.2659ZM24.1001 26.1813V22.5776H23.1001V25.7614L24.1001 26.1813ZM21.1667 24.9496V22.5776H20.1667V24.5297L21.1667 24.9496ZM20.1667 29.3187V25.6143L21.1667 26.0342V28.8988L20.1667 29.3187ZM20.1667 30.4033V32.3554H21.1667V29.9834L20.1667 30.4033ZM23.1001 29.1716V32.3554H24.1001V28.7517L23.1001 29.1716ZM26.0334 27.9399L27.0334 27.52V32.3554H26.0334V27.9399Z" fill="white"/>
<path d="M24.5779 27.4667L16.5112 30.8538L18.4668 27.4667L16.5112 24.0796L24.5779 27.4667Z" fill="white"/>
</g>
</g>
</svg>
